# MagicaVoxel @ Ephtracy

# group
o 

# material
mtllib Brush-0.mtl
usemtl palette

# normals
vn -1 0 0
vn 1 0 0
vn 0 0 1
vn 0 0 -1
vn 0 -1 0
vn 0 1 0

# texcoords
vt 0.126953 0.5
vt 0.158203 0.5
vt 0.189453 0.5
vt 0.861328 0.5

# verts
v -0.3 -0.2 0.1
v -0.3 -0.2 -0.4
v -0.3 -0.2 -0.5
v -0.3 -0.1 0.1
v -0.3 -0.1 0
v -0.3 -0.1 -0.2
v -0.3 -0.1 -0.3
v -0.3 -0.1 -0.4
v -0.3 -0.1 -0.5
v -0.3 0 0.1
v -0.3 0 0
v -0.3 0 -0.2
v -0.3 0 -0.3
v -0.3 0 -0.5
v -0.2 -0.2 0.2
v -0.2 -0.2 0.1
v -0.2 -0.1 0.2
v -0.2 -0.1 0.1
v -0.2 0 0.1
v -0.2 0 0
v -0.2 0 -0.2
v -0.2 0 -0.3
v -0.2 0 -0.5
v -0.2 0.1 -0.1
v -0.2 0.1 -0.2
v -0.2 0.2 0.1
v -0.2 0.2 -0.1
v -0.2 0.2 -0.2
v -0.2 0.2 -0.5
v -0.1 -0.2 0.3
v -0.1 -0.2 0.2
v -0.1 -0.1 0.2
v -0.1 -0.1 0.1
v -0.1 0 0.3
v -0.1 0 0.2
v -0.1 0.1 0.3
v -0.1 0.1 0.2
v -0.1 0.1 0.1
v -0.1 0.2 0
v -0.1 0.2 -0.1
v -0.1 0.2 -0.2
v -0.1 0.2 -0.5
v -0.1 0.3 0
v -0.1 0.3 -0.5
v 0.1 -0.2 0.4
v 0.1 -0.2 0.3
v 0.1 -0.1 0.4
v 0.1 -0.1 0.3
v 0.1 0 0.4
v 0.1 0 0.3
v 0.1 0.1 0.3
v 0.1 0.1 0.2
v 0.1 0.1 0.1
v 0.1 0.2 0.4
v 0.1 0.2 0.3
v 0.1 0.2 0.2
v 0.1 0.2 0.1
v 0 0.2 0
v 0 0.2 -0.4
v 0 0.2 -0.5
v 0 0.3 0
v 0 0.3 -0.5
v 0.1 0 -0.4
v 0.1 0 -0.5
v 0.1 0.1 -0.2
v 0.1 0.1 -0.4
v 0.1 0.1 -0.5
v 0.1 0.2 -0.2
v 0.1 0.2 -0.4
v 0.1 0.2 -0.5
v 0.2 0.1 0.1
v 0.2 0.1 -0.1
v 0.2 0.1 -0.2
v 0.2 0.2 0.1
v 0.2 0.2 -0.1
v 0.2 0.2 -0.2
v 0.3 -0.2 0.1
v 0.3 -0.2 -0.1
v 0.3 -0.1 0
v 0.3 -0.1 -0.1
v 0.3 0 0
v 0.3 0 -0.1
v 0.3 0 -0.2
v 0.3 0 -0.3
v 0.3 0 -0.4
v 0.3 0.1 0.1
v 0.3 0.1 -0.4
v 0.4 -0.2 0.4
v 0.4 -0.2 0.3
v 0.4 -0.2 0.1
v 0.4 -0.2 -0.1
v 0.4 -0.2 -0.4
v 0.4 -0.2 -0.5
v 0.4 -0.1 0.4
v 0.4 -0.1 0.3
v 0.4 -0.1 0.2
v 0.4 -0.1 -0.2
v 0.4 -0.1 -0.3
v 0.4 -0.1 -0.4
v 0.4 -0.1 -0.5
v 0.4 0 0.3
v 0.4 0 0.2
v 0.4 0 -0.1
v 0.4 0 -0.2
v 0.4 0 -0.3
v 0.4 0 -0.5
v 0.4 0.1 0.3
v 0.4 0.1 0.2
v 0.4 0.2 0.4
v 0.4 0.2 0.3
v 0.4 0.2 0.2
v 0.4 0.2 0.1
v 0.1 -0.2 0.4
v 0.1 -0.1 0.4
v 0.1 0 0.4
v 0.1 0.2 0.4
v 0.2 -0.1 0.4
v 0.2 0 0.4
v 0.3 -0.2 0.4
v 0.3 -0.1 0.4
v 0.4 -0.2 0.4
v 0.4 -0.1 0.4
v 0.4 0.2 0.4
v -0.1 -0.2 0.3
v -0.1 0 0.3
v -0.1 0.1 0.3
v 0 0 0.3
v 0 0.1 0.3
v 0.1 -0.2 0.3
v 0.1 -0.1 0.3
v 0.1 0 0.3
v 0.1 0.1 0.3
v -0.2 -0.2 0.2
v -0.2 -0.1 0.2
v -0.1 -0.2 0.2
v -0.1 -0.1 0.2
v -0.3 -0.2 0.1
v -0.3 -0.1 0.1
v -0.3 0 0.1
v -0.2 -0.2 0.1
v -0.2 -0.1 0.1
v -0.2 0 0.1
v -0.2 0.2 0.1
v -0.1 -0.1 0.1
v -0.1 0.1 0.1
v -0.1 0.2 0.1
v 0 0.1 0.1
v 0 0.2 0.1
v 0.1 0.1 0.1
v 0.1 0.2 0.1
v -0.1 0.2 0
v -0.1 0.3 0
v 0 0.2 0
v 0 0.3 0
v 0.3 -0.2 -0.1
v 0.3 -0.1 -0.1
v 0.3 0 -0.1
v 0.4 -0.2 -0.1
v 0.4 0 -0.1
v 0.2 0.1 0.1
v 0.2 0.2 0.1
v 0.3 -0.2 0.1
v 0.3 0.1 0.1
v 0.4 -0.2 0.1
v 0.4 0.2 0.1
v 0.1 0.1 -0.2
v 0.1 0.2 -0.2
v 0.2 0.1 -0.2
v 0.2 0.2 -0.2
v 0.1 0 -0.4
v 0.1 0.1 -0.4
v 0.2 0 -0.4
v 0.3 0 -0.4
v 0.3 0.1 -0.4
v -0.3 -0.2 -0.5
v -0.3 -0.1 -0.5
v -0.3 0 -0.5
v -0.2 -0.2 -0.5
v -0.2 -0.1 -0.5
v -0.2 0 -0.5
v -0.2 0.2 -0.5
v -0.1 -0.1 -0.5
v -0.1 0 -0.5
v -0.1 0.2 -0.5
v -0.1 0.3 -0.5
v 0 -0.1 -0.5
v 0 0 -0.5
v 0 0.1 -0.5
v 0 0.2 -0.5
v 0 0.3 -0.5
v 0.1 -0.1 -0.5
v 0.1 0 -0.5
v 0.1 0.1 -0.5
v 0.1 0.2 -0.5
v 0.2 -0.1 -0.5
v 0.2 0 -0.5
v 0.3 -0.2 -0.5
v 0.3 -0.1 -0.5
v 0.4 -0.2 -0.5
v 0.4 -0.1 -0.5
v 0.4 0 -0.5
v 0.1 -0.2 0.4
v 0.3 -0.2 0.4
v 0.4 -0.2 0.4
v -0.1 -0.2 0.3
v 0.1 -0.2 0.3
v 0.3 -0.2 0.3
v 0.4 -0.2 0.3
v -0.2 -0.2 0.2
v -0.1 -0.2 0.2
v 0 -0.2 0.2
v 0.1 -0.2 0.2
v 0.2 -0.2 0.2
v -0.3 -0.2 0.1
v -0.2 -0.2 0.1
v -0.1 -0.2 0.1
v 0 -0.2 0.1
v 0.2 -0.2 0.1
v 0.3 -0.2 0.1
v 0.4 -0.2 0.1
v 0.2 -0.2 -0.1
v 0.3 -0.2 -0.1
v 0.4 -0.2 -0.1
v -0.1 -0.2 -0.2
v 0 -0.2 -0.2
v 0 -0.2 -0.3
v 0.1 -0.2 -0.3
v -0.3 -0.2 -0.4
v -0.2 -0.2 -0.4
v 0.1 -0.2 -0.4
v 0.3 -0.2 -0.4
v 0.4 -0.2 -0.4
v -0.3 -0.2 -0.5
v -0.2 -0.2 -0.5
v 0.3 -0.2 -0.5
v 0.4 -0.2 -0.5
v -0.2 -0.1 0.2
v -0.1 -0.1 0.2
v -0.2 -0.1 0.1
v -0.1 -0.1 0.1
v -0.3 0 0.1
v -0.2 0 0.1
v -0.3 0 0
v -0.2 0 0
v 0.3 0 -0.1
v 0.4 0 -0.1
v -0.3 0 -0.2
v -0.2 0 -0.2
v 0.3 0 -0.2
v 0.4 0 -0.2
v -0.3 0 -0.3
v -0.2 0 -0.3
v 0.3 0 -0.3
v 0.4 0 -0.3
v 0.1 0 -0.4
v 0.2 0 -0.4
v 0.3 0 -0.4
v -0.3 0 -0.5
v -0.2 0 -0.5
v 0.1 0 -0.5
v 0.2 0 -0.5
v 0.4 0 -0.5
v -0.1 0.1 0.3
v 0 0.1 0.3
v 0.1 0.1 0.3
v -0.1 0.1 0.2
v 0 0.1 0.2
v 0.1 0.1 0.2
v -0.1 0.1 0.1
v 0 0.1 0.1
v 0.1 0.1 0.1
v 0.2 0.1 0.1
v 0.3 0.1 0.1
v 0.2 0.1 -0.1
v 0.1 0.1 -0.2
v 0.2 0.1 -0.2
v 0.1 0.1 -0.4
v 0.3 0.1 -0.4
v 0.1 0.2 0.4
v 0.4 0.2 0.4
v 0.1 0.2 0.3
v 0.2 0.2 0.3
v 0.3 0.2 0.3
v 0.4 0.2 0.3
v 0.1 0.2 0.2
v 0.2 0.2 0.2
v 0.3 0.2 0.2
v 0.4 0.2 0.2
v -0.2 0.2 0.1
v -0.1 0.2 0.1
v 0 0.2 0.1
v 0.1 0.2 0.1
v 0.2 0.2 0.1
v 0.4 0.2 0.1
v -0.1 0.2 0
v 0 0.2 0
v -0.2 0.2 -0.1
v -0.1 0.2 -0.1
v 0.1 0.2 -0.1
v 0.2 0.2 -0.1
v -0.2 0.2 -0.2
v -0.1 0.2 -0.2
v 0.1 0.2 -0.2
v 0.2 0.2 -0.2
v 0 0.2 -0.4
v 0.1 0.2 -0.4
v -0.2 0.2 -0.5
v -0.1 0.2 -0.5
v 0 0.2 -0.5
v 0.1 0.2 -0.5
v -0.1 0.3 0
v 0 0.3 0
v -0.1 0.3 -0.5
v 0 0.3 -0.5

# faces
f 4/3/1 2/3/1 1/3/1
f 5/3/1 2/3/1 4/3/1
f 6/3/1 2/3/1 5/3/1
f 7/3/1 2/3/1 6/3/1
f 8/2/1 3/2/1 2/2/1
f 8/3/1 2/3/1 7/3/1
f 9/2/1 3/2/1 8/2/1
f 10/2/1 5/2/1 4/2/1
f 11/3/1 6/3/1 5/3/1
f 11/2/1 5/2/1 10/2/1
f 12/2/1 7/2/1 6/2/1
f 12/3/1 6/3/1 11/3/1
f 13/3/1 8/3/1 7/3/1
f 13/2/1 7/2/1 12/2/1
f 13/3/1 9/3/1 8/3/1
f 14/3/1 9/3/1 13/3/1
f 17/3/1 16/3/1 15/3/1
f 18/3/1 16/3/1 17/3/1
f 24/3/1 20/3/1 19/3/1
f 24/3/1 23/3/1 22/3/1
f 24/3/1 22/3/1 21/3/1
f 24/3/1 21/3/1 20/3/1
f 25/3/1 23/3/1 24/3/1
f 26/3/1 24/3/1 19/3/1
f 27/2/1 25/2/1 24/2/1
f 27/3/1 24/3/1 26/3/1
f 28/3/1 23/3/1 25/3/1
f 28/2/1 25/2/1 27/2/1
f 29/3/1 23/3/1 28/3/1
f 32/3/1 31/3/1 30/3/1
f 34/3/1 32/3/1 30/3/1
f 34/3/1 33/3/1 32/3/1
f 35/3/1 33/3/1 34/3/1
f 36/2/1 35/2/1 34/2/1
f 37/3/1 33/3/1 35/3/1
f 37/2/1 35/2/1 36/2/1
f 38/3/1 33/3/1 37/3/1
f 43/3/1 40/3/1 39/3/1
f 43/3/1 42/3/1 41/3/1
f 43/3/1 41/3/1 40/3/1
f 44/3/1 42/3/1 43/3/1
f 47/3/1 46/3/1 45/3/1
f 48/3/1 46/3/1 47/3/1
f 49/2/1 48/2/1 47/2/1
f 50/2/1 48/2/1 49/2/1
f 51/3/1 50/3/1 49/3/1
f 54/3/1 51/3/1 49/3/1
f 55/2/1 52/2/1 51/2/1
f 55/3/1 51/3/1 54/3/1
f 56/3/1 53/3/1 52/3/1
f 56/2/1 52/2/1 55/2/1
f 57/3/1 53/3/1 56/3/1
f 58/3/2 59/3/2 61/3/2
f 59/3/2 60/3/2 61/3/2
f 61/3/2 60/3/2 62/3/2
f 63/3/2 64/3/2 66/3/2
f 66/3/2 64/3/2 67/3/2
f 65/3/2 66/3/2 68/3/2
f 66/2/2 67/2/2 69/2/2
f 68/3/2 66/3/2 69/3/2
f 69/2/2 67/2/2 70/2/2
f 71/2/2 72/2/2 74/2/2
f 72/3/2 73/3/2 75/3/2
f 74/2/2 72/2/2 75/2/2
f 75/3/2 73/3/2 76/3/2
f 77/3/2 78/3/2 79/3/2
f 79/3/2 78/3/2 80/3/2
f 77/3/2 79/3/2 81/3/2
f 79/2/2 80/2/2 81/2/2
f 81/2/2 80/2/2 82/2/2
f 81/3/2 82/3/2 86/3/2
f 84/3/2 85/3/2 86/3/2
f 83/3/2 84/3/2 86/3/2
f 82/3/2 83/3/2 86/3/2
f 77/3/2 81/3/2 86/3/2
f 86/3/2 85/3/2 87/3/2
f 88/2/2 89/2/2 94/2/2
f 89/3/2 90/3/2 95/3/2
f 94/2/2 89/2/2 95/2/2
f 95/3/2 90/3/2 96/3/2
f 91/3/2 92/3/2 97/3/2
f 97/3/2 92/3/2 98/3/2
f 92/2/2 93/2/2 99/2/2
f 98/3/2 92/3/2 99/3/2
f 99/2/2 93/2/2 100/2/2
f 94/3/2 95/3/2 101/3/2
f 95/2/2 96/2/2 101/2/2
f 96/3/2 90/3/2 102/3/2
f 101/2/2 96/2/2 102/2/2
f 91/3/2 97/3/2 103/3/2
f 97/2/2 98/2/2 104/2/2
f 103/3/2 97/3/2 104/3/2
f 99/3/2 100/3/2 105/3/2
f 104/2/2 98/2/2 105/2/2
f 98/3/2 99/3/2 105/3/2
f 105/3/2 100/3/2 106/3/2
f 94/3/2 101/3/2 107/3/2
f 101/3/2 102/3/2 107/3/2
f 102/3/2 90/3/2 108/3/2
f 107/3/2 102/3/2 108/3/2
f 94/3/2 107/3/2 109/3/2
f 107/2/2 108/2/2 110/2/2
f 109/3/2 107/3/2 110/3/2
f 108/3/2 90/3/2 111/3/2
f 110/2/2 108/2/2 111/2/2
f 111/3/2 90/3/2 112/3/2
f 117/3/3 114/3/3 113/3/3
f 117/2/3 115/2/3 114/2/3
f 118/3/3 116/3/3 115/3/3
f 118/2/3 115/2/3 117/2/3
f 119/3/3 117/3/3 113/3/3
f 119/3/3 118/3/3 117/3/3
f 120/3/3 118/3/3 119/3/3
f 121/2/3 120/2/3 119/2/3
f 122/3/3 118/3/3 120/3/3
f 122/2/3 120/2/3 121/2/3
f 123/3/3 116/3/3 118/3/3
f 123/3/3 118/3/3 122/3/3
f 127/3/3 125/3/3 124/3/3
f 127/2/3 126/2/3 125/2/3
f 128/2/3 126/2/3 127/2/3
f 129/3/3 127/3/3 124/3/3
f 129/3/3 128/3/3 127/3/3
f 130/3/3 128/3/3 129/3/3
f 131/3/3 128/3/3 130/3/3
f 132/3/3 128/3/3 131/3/3
f 135/3/3 134/3/3 133/3/3
f 136/3/3 134/3/3 135/3/3
f 140/3/3 138/3/3 137/3/3
f 141/2/3 139/2/3 138/2/3
f 141/3/3 138/3/3 140/3/3
f 142/2/3 139/2/3 141/2/3
f 144/3/3 143/3/3 142/3/3
f 144/3/3 142/3/3 141/3/3
f 145/3/3 143/3/3 144/3/3
f 146/3/3 143/3/3 145/3/3
f 147/2/3 146/2/3 145/2/3
f 148/2/3 146/2/3 147/2/3
f 149/3/3 148/3/3 147/3/3
f 150/3/3 148/3/3 149/3/3
f 153/3/3 152/3/3 151/3/3
f 154/3/3 152/3/3 153/3/3
f 158/3/3 156/3/3 155/3/3
f 158/3/3 157/3/3 156/3/3
f 159/3/3 157/3/3 158/3/3
f 160/3/4 161/3/4 163/3/4
f 162/3/4 163/3/4 164/3/4
f 163/3/4 161/3/4 165/3/4
f 164/3/4 163/3/4 165/3/4
f 166/3/4 167/3/4 168/3/4
f 168/3/4 167/3/4 169/3/4
f 170/3/4 171/3/4 172/3/4
f 172/3/4 171/3/4 173/3/4
f 173/3/4 171/3/4 174/3/4
f 175/2/4 176/2/4 178/2/4
f 176/3/4 177/3/4 179/3/4
f 178/2/4 176/2/4 179/2/4
f 179/3/4 177/3/4 180/3/4
f 178/3/4 179/3/4 182/3/4
f 180/3/4 181/3/4 182/3/4
f 179/3/4 180/3/4 182/3/4
f 182/3/4 181/3/4 183/3/4
f 183/3/4 181/3/4 184/3/4
f 178/3/4 182/3/4 186/3/4
f 182/2/4 183/2/4 186/2/4
f 184/3/4 185/3/4 187/3/4
f 186/2/4 183/2/4 187/2/4
f 183/3/4 184/3/4 187/3/4
f 187/3/4 185/3/4 188/3/4
f 188/3/4 185/3/4 189/3/4
f 189/3/4 185/3/4 190/3/4
f 178/3/4 186/3/4 191/3/4
f 186/3/4 187/3/4 191/3/4
f 187/3/4 188/3/4 191/3/4
f 191/3/4 188/3/4 192/3/4
f 188/2/4 189/2/4 193/2/4
f 192/3/4 188/3/4 193/3/4
f 193/2/4 189/2/4 194/2/4
f 191/2/4 192/2/4 195/2/4
f 178/3/4 191/3/4 195/3/4
f 195/2/4 192/2/4 196/2/4
f 178/3/4 195/3/4 197/3/4
f 195/3/4 196/3/4 197/3/4
f 197/3/4 196/3/4 198/3/4
f 197/2/4 198/2/4 199/2/4
f 198/3/4 196/3/4 200/3/4
f 199/2/4 198/2/4 200/2/4
f 200/3/4 196/3/4 201/3/4
f 206/3/5 203/3/5 202/3/5
f 207/2/5 204/2/5 203/2/5
f 207/3/5 203/3/5 206/3/5
f 208/2/5 204/2/5 207/2/5
f 210/3/5 206/3/5 205/3/5
f 211/3/5 206/3/5 210/3/5
f 212/1/5 207/1/5 206/1/5
f 212/3/5 206/3/5 211/3/5
f 213/1/5 207/1/5 212/1/5
f 215/3/5 211/3/5 210/3/5
f 215/3/5 210/3/5 209/3/5
f 216/3/5 211/3/5 215/3/5
f 217/4/5 213/4/5 212/4/5
f 217/3/5 211/3/5 216/3/5
f 217/4/5 212/4/5 211/4/5
f 218/1/5 207/1/5 213/1/5
f 218/4/5 213/4/5 217/4/5
f 219/3/5 208/3/5 207/3/5
f 219/1/5 207/1/5 218/1/5
f 220/3/5 208/3/5 219/3/5
f 221/4/5 218/4/5 217/4/5
f 221/3/5 219/3/5 218/3/5
f 222/3/5 219/3/5 221/3/5
f 224/1/5 217/1/5 216/1/5
f 224/3/5 216/3/5 215/3/5
f 224/3/5 215/3/5 214/3/5
f 225/4/5 222/4/5 221/4/5
f 225/1/5 217/1/5 224/1/5
f 225/4/5 221/4/5 217/4/5
f 226/3/5 225/3/5 224/3/5
f 226/4/5 222/4/5 225/4/5
f 227/4/5 222/4/5 226/4/5
f 228/3/5 224/3/5 214/3/5
f 228/3/5 226/3/5 224/3/5
f 228/3/5 227/3/5 226/3/5
f 229/3/5 227/3/5 228/3/5
f 230/4/5 222/4/5 227/4/5
f 230/3/5 227/3/5 229/3/5
f 231/3/5 223/3/5 222/3/5
f 231/4/5 222/4/5 230/4/5
f 232/3/5 223/3/5 231/3/5
f 233/2/5 229/2/5 228/2/5
f 234/3/5 230/3/5 229/3/5
f 234/2/5 229/2/5 233/2/5
f 234/3/5 231/3/5 230/3/5
f 235/2/5 232/2/5 231/2/5
f 235/3/5 231/3/5 234/3/5
f 236/2/5 232/2/5 235/2/5
f 237/3/6 238/3/6 239/3/6
f 239/3/6 238/3/6 240/3/6
f 241/2/6 242/2/6 243/2/6
f 243/2/6 242/2/6 244/2/6
f 243/3/6 244/3/6 247/3/6
f 247/3/6 244/3/6 248/3/6
f 245/3/6 246/3/6 249/3/6
f 249/3/6 246/3/6 250/3/6
f 247/2/6 248/2/6 251/2/6
f 251/2/6 248/2/6 252/2/6
f 249/2/6 250/2/6 253/2/6
f 253/2/6 250/2/6 254/2/6
f 253/3/6 254/3/6 257/3/6
f 251/3/6 252/3/6 258/3/6
f 258/3/6 252/3/6 259/3/6
f 255/2/6 256/2/6 260/2/6
f 256/3/6 257/3/6 261/3/6
f 260/2/6 256/2/6 261/2/6
f 257/3/6 254/3/6 262/3/6
f 261/3/6 257/3/6 262/3/6
f 263/2/6 264/2/6 266/2/6
f 264/3/6 265/3/6 267/3/6
f 266/2/6 264/2/6 267/2/6
f 267/3/6 265/3/6 268/3/6
f 266/3/6 267/3/6 269/3/6
f 267/3/6 268/3/6 269/3/6
f 269/3/6 268/3/6 270/3/6
f 270/3/6 268/3/6 271/3/6
f 272/3/6 273/3/6 274/3/6
f 274/3/6 273/3/6 276/3/6
f 275/3/6 276/3/6 277/3/6
f 276/3/6 273/3/6 278/3/6
f 277/3/6 276/3/6 278/3/6
f 279/3/6 280/3/6 281/3/6
f 281/3/6 280/3/6 282/3/6
f 282/3/6 280/3/6 283/3/6
f 283/3/6 280/3/6 284/3/6
f 281/2/6 282/2/6 285/2/6
f 282/3/6 283/3/6 286/3/6
f 285/2/6 282/2/6 286/2/6
f 283/2/6 284/2/6 287/2/6
f 286/3/6 283/3/6 287/3/6
f 287/2/6 284/2/6 288/2/6
f 285/3/6 286/3/6 292/3/6
f 286/3/6 287/3/6 292/3/6
f 287/3/6 288/3/6 292/3/6
f 292/3/6 288/3/6 293/3/6
f 293/3/6 288/3/6 294/3/6
f 290/2/6 291/2/6 295/2/6
f 289/3/6 290/3/6 295/3/6
f 291/3/6 292/3/6 296/3/6
f 295/2/6 291/2/6 296/2/6
f 289/3/6 295/3/6 297/3/6
f 297/3/6 295/3/6 298/3/6
f 292/2/6 293/2/6 299/2/6
f 296/3/6 292/3/6 299/3/6
f 299/2/6 293/2/6 300/2/6
f 297/2/6 298/2/6 301/2/6
f 301/2/6 298/2/6 302/2/6
f 296/3/6 299/3/6 303/3/6
f 299/3/6 300/3/6 303/3/6
f 303/3/6 300/3/6 304/3/6
f 296/3/6 303/3/6 305/3/6
f 305/3/6 303/3/6 306/3/6
f 301/3/6 302/3/6 307/3/6
f 307/3/6 302/3/6 308/3/6
f 305/2/6 306/2/6 309/2/6
f 309/2/6 306/2/6 310/2/6
f 311/3/6 312/3/6 313/3/6
f 313/3/6 312/3/6 314/3/6
