# MagicaVoxel @ Ephtracy

# group
o 

# material
mtllib Tree-3.mtl
usemtl palette

# normals
vn -1 0 0
vn 1 0 0
vn 0 0 1
vn 0 0 -1
vn 0 -1 0
vn 0 1 0

# texcoords
vt 0.130859 0.5
vt 0.138672 0.5
vt 0.142578 0.5

# verts
v -0.4 -0.1 0.3
v -0.4 -0.1 -0.4
v -0.4 0.3 0.3
v -0.4 0.3 0
v -0.4 0.5 0
v -0.4 0.5 -0.4
v -0.3 0.3 0.3
v -0.3 0.3 0
v -0.3 0.5 0
v -0.3 0.5 -0.3
v -0.3 0.6 0.3
v -0.3 0.6 0.2
v -0.3 0.7 0.2
v -0.3 0.7 -0.3
v -0.2 -0.6 0.1
v -0.2 -0.6 -0.1
v -0.2 -0.5 0.1
v -0.2 -0.5 -0.1
v -0.2 -0.1 0.4
v -0.2 -0.1 0.3
v -0.2 0.3 0.4
v -0.2 0.3 0.3
v -0.1 -0.6 0.2
v -0.1 -0.6 0.1
v -0.1 -0.6 -0.1
v -0.1 -0.6 -0.2
v -0.1 -0.5 0.2
v -0.1 -0.5 0.1
v -0.1 -0.5 -0.1
v -0.1 -0.5 -0.2
v -0.1 -0.4 0.1
v -0.1 -0.4 -0.1
v -0.1 -0.2 0
v -0.1 -0.2 -0.1
v -0.1 -0.1 0.1
v -0.1 -0.1 0
v -0.1 -0.1 -0.1
v 0 0.3 0.4
v 0 0.3 0.3
v 0 0.5 0.4
v 0 0.5 0.3
v 0 -0.1 -0.3
v 0 -0.1 -0.4
v 0 0.5 -0.3
v 0 0.5 -0.4
v 0.1 -0.6 0.2
v 0.1 -0.6 0.1
v 0.1 -0.6 -0.1
v 0.1 -0.6 -0.2
v 0.1 -0.5 0.2
v 0.1 -0.5 0.1
v 0.1 -0.5 0
v 0.1 -0.5 -0.1
v 0.1 -0.5 -0.2
v 0.1 -0.4 0.1
v 0.1 -0.4 0
v 0.1 -0.4 -0.1
v 0.1 -0.3 0.1
v 0.1 -0.3 0
v 0.1 -0.1 0.1
v 0.1 -0.1 -0.1
v 0.1 0.6 0.2
v 0.1 0.6 -0.3
v 0.1 0.7 0.2
v 0.1 0.7 -0.3
v 0.2 -0.6 0.1
v 0.2 -0.6 0
v 0.2 -0.6 -0.1
v 0.2 -0.5 0.1
v 0.2 -0.5 0
v 0.2 -0.5 -0.1
v 0.2 -0.1 -0.2
v 0.2 -0.1 -0.3
v 0.2 0.4 0
v 0.2 0.4 -0.2
v 0.2 0.6 0
v 0.2 0.6 -0.3
v 0.3 -0.1 0.4
v 0.3 -0.1 0.1
v 0.3 0.4 0.1
v 0.3 0.4 0
v 0.3 0.5 0.4
v 0.3 0.5 0.3
v 0.3 0.6 0.3
v 0.3 0.6 0
v 0.4 -0.1 0.1
v 0.4 -0.1 -0.2
v 0.4 0.4 0.1
v 0.4 0.4 -0.2
v -0.2 -0.1 0.4
v -0.2 0.3 0.4
v 0 0.3 0.4
v 0 0.5 0.4
v 0.3 -0.1 0.4
v 0.3 0.5 0.4
v -0.4 -0.1 0.3
v -0.4 0.3 0.3
v -0.3 0.3 0.3
v -0.3 0.6 0.3
v -0.2 -0.1 0.3
v -0.2 0.3 0.3
v 0 0.3 0.3
v 0 0.5 0.3
v 0.3 0.5 0.3
v 0.3 0.6 0.3
v -0.3 0.6 0.2
v -0.3 0.7 0.2
v -0.1 -0.6 0.2
v -0.1 -0.5 0.2
v 0.1 -0.6 0.2
v 0.1 -0.5 0.2
v 0.1 0.6 0.2
v 0.1 0.7 0.2
v -0.2 -0.6 0.1
v -0.2 -0.5 0.1
v -0.1 -0.6 0.1
v -0.1 -0.5 0.1
v -0.1 -0.4 0.1
v -0.1 -0.1 0.1
v 0 -0.3 0.1
v 0 -0.1 0.1
v 0.1 -0.6 0.1
v 0.1 -0.5 0.1
v 0.1 -0.4 0.1
v 0.1 -0.3 0.1
v 0.1 -0.1 0.1
v 0.2 -0.6 0.1
v 0.2 -0.5 0.1
v 0.3 -0.1 0.1
v 0.3 0.4 0.1
v 0.4 -0.1 0.1
v 0.4 0.4 0.1
v -0.4 0.3 0
v -0.4 0.5 0
v -0.3 0.3 0
v -0.3 0.5 0
v 0.2 0.4 0
v 0.2 0.6 0
v 0.3 0.4 0
v 0.3 0.6 0
v -0.2 -0.6 -0.1
v -0.2 -0.5 -0.1
v -0.1 -0.6 -0.1
v -0.1 -0.5 -0.1
v -0.1 -0.4 -0.1
v -0.1 -0.2 -0.1
v -0.1 -0.1 -0.1
v 0 -0.5 -0.1
v 0 -0.4 -0.1
v 0 -0.2 -0.1
v 0.1 -0.6 -0.1
v 0.1 -0.5 -0.1
v 0.1 -0.4 -0.1
v 0.1 -0.1 -0.1
v 0.2 -0.6 -0.1
v 0.2 -0.5 -0.1
v -0.1 -0.6 -0.2
v -0.1 -0.5 -0.2
v 0.1 -0.6 -0.2
v 0.1 -0.5 -0.2
v 0.2 -0.1 -0.2
v 0.2 0.4 -0.2
v 0.4 -0.1 -0.2
v 0.4 0.4 -0.2
v -0.3 0.5 -0.3
v -0.3 0.7 -0.3
v 0 -0.1 -0.3
v 0 0.5 -0.3
v 0.1 0.6 -0.3
v 0.1 0.7 -0.3
v 0.2 -0.1 -0.3
v 0.2 0.6 -0.3
v -0.4 -0.1 -0.4
v -0.4 0.5 -0.4
v 0 -0.1 -0.4
v 0 0.5 -0.4
v -0.1 -0.6 0.2
v 0.1 -0.6 0.2
v -0.2 -0.6 0.1
v -0.1 -0.6 0.1
v 0.1 -0.6 0.1
v 0.2 -0.6 0.1
v 0.1 -0.6 0
v 0.2 -0.6 0
v -0.2 -0.6 -0.1
v -0.1 -0.6 -0.1
v 0.1 -0.6 -0.1
v 0.2 -0.6 -0.1
v -0.1 -0.6 -0.2
v 0.1 -0.6 -0.2
v -0.2 -0.1 0.4
v 0.3 -0.1 0.4
v -0.4 -0.1 0.3
v -0.2 -0.1 0.3
v -0.1 -0.1 0.1
v 0 -0.1 0.1
v 0.1 -0.1 0.1
v 0.3 -0.1 0.1
v 0.4 -0.1 0.1
v -0.1 -0.1 0
v -0.1 -0.1 -0.1
v 0.1 -0.1 -0.1
v 0.2 -0.1 -0.2
v 0.4 -0.1 -0.2
v 0 -0.1 -0.3
v 0.2 -0.1 -0.3
v -0.4 -0.1 -0.4
v 0 -0.1 -0.4
v -0.1 -0.5 0.2
v 0.1 -0.5 0.2
v -0.2 -0.5 0.1
v -0.1 -0.5 0.1
v 0.1 -0.5 0.1
v 0.2 -0.5 0.1
v 0.1 -0.5 0
v 0.2 -0.5 0
v -0.2 -0.5 -0.1
v -0.1 -0.5 -0.1
v 0 -0.5 -0.1
v 0.1 -0.5 -0.1
v 0.2 -0.5 -0.1
v -0.1 -0.5 -0.2
v 0.1 -0.5 -0.2
v -0.2 0.3 0.4
v 0 0.3 0.4
v -0.4 0.3 0.3
v -0.3 0.3 0.3
v -0.2 0.3 0.3
v 0 0.3 0.3
v -0.4 0.3 0
v -0.3 0.3 0
v 0.3 0.4 0.1
v 0.4 0.4 0.1
v 0.2 0.4 0
v 0.3 0.4 0
v 0.2 0.4 -0.2
v 0.4 0.4 -0.2
v 0 0.5 0.4
v 0.3 0.5 0.4
v 0 0.5 0.3
v 0.3 0.5 0.3
v -0.4 0.5 0
v -0.3 0.5 0
v -0.3 0.5 -0.3
v 0 0.5 -0.3
v -0.4 0.5 -0.4
v 0 0.5 -0.4
v -0.3 0.6 0.3
v 0.3 0.6 0.3
v -0.3 0.6 0.2
v 0.1 0.6 0.2
v 0.2 0.6 0
v 0.3 0.6 0
v 0.1 0.6 -0.3
v 0.2 0.6 -0.3
v -0.3 0.7 0.2
v 0.1 0.7 0.2
v -0.3 0.7 -0.3
v 0.1 0.7 -0.3

# faces
f 3/1/1 2/1/1 1/1/1
f 4/1/1 2/1/1 3/1/1
f 5/1/1 2/1/1 4/1/1
f 6/1/1 2/1/1 5/1/1
f 9/1/1 8/1/1 7/1/1
f 11/1/1 9/1/1 7/1/1
f 11/1/1 10/1/1 9/1/1
f 12/1/1 10/1/1 11/1/1
f 13/1/1 10/1/1 12/1/1
f 14/1/1 10/1/1 13/1/1
f 17/3/1 16/3/1 15/3/1
f 18/3/1 16/3/1 17/3/1
f 21/1/1 20/1/1 19/1/1
f 22/1/1 20/1/1 21/1/1
f 27/2/1 24/2/1 23/2/1
f 28/2/1 24/2/1 27/2/1
f 29/2/1 26/2/1 25/2/1
f 30/2/1 26/2/1 29/2/1
f 31/2/1 29/2/1 28/2/1
f 32/2/1 29/2/1 31/2/1
f 33/3/1 32/3/1 31/3/1
f 34/3/1 32/3/1 33/3/1
f 35/3/1 33/3/1 31/3/1
f 36/2/1 34/2/1 33/2/1
f 36/3/1 33/3/1 35/3/1
f 37/2/1 34/2/1 36/2/1
f 40/1/1 39/1/1 38/1/1
f 41/1/1 39/1/1 40/1/1
f 42/1/2 43/1/2 44/1/2
f 44/1/2 43/1/2 45/1/2
f 46/2/2 47/2/2 50/2/2
f 50/2/2 47/2/2 51/2/2
f 48/2/2 49/2/2 53/2/2
f 53/2/2 49/2/2 54/2/2
f 51/2/2 52/2/2 55/2/2
f 52/3/2 53/3/2 56/3/2
f 55/2/2 52/2/2 56/2/2
f 56/3/2 53/3/2 57/3/2
f 55/3/2 56/3/2 58/3/2
f 56/2/2 57/2/2 59/2/2
f 58/3/2 56/3/2 59/3/2
f 58/2/2 59/2/2 60/2/2
f 59/2/2 57/2/2 61/2/2
f 60/2/2 59/2/2 61/2/2
f 62/1/2 63/1/2 64/1/2
f 64/1/2 63/1/2 65/1/2
f 66/2/2 67/2/2 69/2/2
f 67/3/2 68/3/2 70/3/2
f 69/2/2 67/2/2 70/2/2
f 70/3/2 68/3/2 71/3/2
f 72/1/2 73/1/2 75/1/2
f 74/1/2 75/1/2 76/1/2
f 75/1/2 73/1/2 77/1/2
f 76/1/2 75/1/2 77/1/2
f 78/1/2 79/1/2 80/1/2
f 78/1/2 80/1/2 82/1/2
f 80/1/2 81/1/2 82/1/2
f 82/1/2 81/1/2 83/1/2
f 83/1/2 81/1/2 84/1/2
f 84/1/2 81/1/2 85/1/2
f 86/1/2 87/1/2 88/1/2
f 88/1/2 87/1/2 89/1/2
f 92/1/3 91/1/3 90/1/3
f 94/1/3 92/1/3 90/1/3
f 94/1/3 93/1/3 92/1/3
f 95/1/3 93/1/3 94/1/3
f 98/1/3 97/1/3 96/1/3
f 100/1/3 98/1/3 96/1/3
f 100/1/3 99/1/3 98/1/3
f 101/1/3 99/1/3 100/1/3
f 102/1/3 99/1/3 101/1/3
f 103/1/3 99/1/3 102/1/3
f 104/1/3 99/1/3 103/1/3
f 105/1/3 99/1/3 104/1/3
f 110/2/3 109/2/3 108/2/3
f 111/2/3 109/2/3 110/2/3
f 112/1/3 107/1/3 106/1/3
f 113/1/3 107/1/3 112/1/3
f 116/3/3 115/3/3 114/3/3
f 117/3/3 115/3/3 116/3/3
f 120/3/3 119/3/3 118/3/3
f 121/3/3 119/3/3 120/3/3
f 123/2/3 118/2/3 117/2/3
f 124/3/3 120/3/3 118/3/3
f 124/2/3 118/2/3 123/2/3
f 125/2/3 121/2/3 120/2/3
f 125/3/3 120/3/3 124/3/3
f 126/2/3 121/2/3 125/2/3
f 127/2/3 123/2/3 122/2/3
f 128/2/3 123/2/3 127/2/3
f 131/1/3 130/1/3 129/1/3
f 132/1/3 130/1/3 131/1/3
f 135/1/3 134/1/3 133/1/3
f 136/1/3 134/1/3 135/1/3
f 137/1/4 138/1/4 139/1/4
f 139/1/4 138/1/4 140/1/4
f 141/3/4 142/3/4 143/3/4
f 143/3/4 142/3/4 144/3/4
f 144/2/4 145/2/4 148/2/4
f 145/3/4 146/3/4 149/3/4
f 148/2/4 145/2/4 149/2/4
f 146/2/4 147/2/4 150/2/4
f 149/3/4 146/3/4 150/3/4
f 148/3/4 149/3/4 152/3/4
f 149/2/4 150/2/4 153/2/4
f 152/3/4 149/3/4 153/3/4
f 150/2/4 147/2/4 154/2/4
f 153/2/4 150/2/4 154/2/4
f 151/3/4 152/3/4 155/3/4
f 155/3/4 152/3/4 156/3/4
f 157/2/4 158/2/4 159/2/4
f 159/2/4 158/2/4 160/2/4
f 161/1/4 162/1/4 163/1/4
f 163/1/4 162/1/4 164/1/4
f 165/1/4 166/1/4 168/1/4
f 168/1/4 166/1/4 169/1/4
f 167/1/4 168/1/4 169/1/4
f 169/1/4 166/1/4 170/1/4
f 167/1/4 169/1/4 171/1/4
f 171/1/4 169/1/4 172/1/4
f 173/1/4 174/1/4 175/1/4
f 175/1/4 174/1/4 176/1/4
f 180/2/5 178/2/5 177/2/5
f 181/2/5 178/2/5 180/2/5
f 183/2/5 181/2/5 180/2/5
f 183/2/5 182/2/5 181/2/5
f 184/2/5 182/2/5 183/2/5
f 185/3/5 180/3/5 179/3/5
f 186/2/5 183/2/5 180/2/5
f 186/3/5 180/3/5 185/3/5
f 187/3/5 184/3/5 183/3/5
f 187/2/5 183/2/5 186/2/5
f 188/3/5 184/3/5 187/3/5
f 189/2/5 187/2/5 186/2/5
f 190/2/5 187/2/5 189/2/5
f 194/1/5 192/1/5 191/1/5
f 195/1/5 192/1/5 194/1/5
f 195/1/5 194/1/5 193/1/5
f 196/1/5 192/1/5 195/1/5
f 197/1/5 192/1/5 196/1/5
f 198/1/5 192/1/5 197/1/5
f 200/1/5 195/1/5 193/1/5
f 201/1/5 200/1/5 193/1/5
f 202/1/5 199/1/5 198/1/5
f 202/1/5 198/1/5 197/1/5
f 203/1/5 199/1/5 202/1/5
f 203/1/5 202/1/5 201/1/5
f 204/1/5 199/1/5 203/1/5
f 205/1/5 203/1/5 201/1/5
f 206/1/5 203/1/5 205/1/5
f 207/1/5 201/1/5 193/1/5
f 207/1/5 205/1/5 201/1/5
f 208/1/5 205/1/5 207/1/5
f 209/2/6 210/2/6 212/2/6
f 212/2/6 210/2/6 213/2/6
f 213/2/6 214/2/6 215/2/6
f 215/2/6 214/2/6 216/2/6
f 211/3/6 212/3/6 217/3/6
f 217/3/6 212/3/6 218/3/6
f 215/3/6 216/3/6 220/3/6
f 220/3/6 216/3/6 221/3/6
f 218/2/6 219/2/6 222/2/6
f 219/2/6 220/2/6 222/2/6
f 222/2/6 220/2/6 223/2/6
f 224/1/6 225/1/6 228/1/6
f 228/1/6 225/1/6 229/1/6
f 226/1/6 227/1/6 230/1/6
f 230/1/6 227/1/6 231/1/6
f 232/1/6 233/1/6 235/1/6
f 234/1/6 235/1/6 236/1/6
f 235/1/6 233/1/6 237/1/6
f 236/1/6 235/1/6 237/1/6
f 238/1/6 239/1/6 240/1/6
f 240/1/6 239/1/6 241/1/6
f 242/1/6 243/1/6 244/1/6
f 242/1/6 244/1/6 246/1/6
f 244/1/6 245/1/6 246/1/6
f 246/1/6 245/1/6 247/1/6
f 248/1/6 249/1/6 250/1/6
f 250/1/6 249/1/6 251/1/6
f 251/1/6 249/1/6 252/1/6
f 252/1/6 249/1/6 253/1/6
f 251/1/6 252/1/6 254/1/6
f 254/1/6 252/1/6 255/1/6
f 256/1/6 257/1/6 258/1/6
f 258/1/6 257/1/6 259/1/6
