# MagicaVoxel @ Ephtracy

# group
o 

# material
mtllib Tree-2.mtl
usemtl palette

# normals
vn -1 0 0
vn 1 0 0
vn 0 0 1
vn 0 0 -1
vn 0 -1 0
vn 0 1 0

# texcoords
vt 0.158203 0.5
vt 0.162109 0.5
vt 0.166016 0.5
vt 0.169922 0.5

# verts
v -0.2 -0.1 0.2
v -0.2 -0.1 -0.2
v -0.2 0 0.2
v -0.2 0 -0.2
v -0.2 0.1 0.2
v -0.2 0.1 -0.2
v -0.2 0.3 0.2
v -0.2 0.3 -0.2
v -0.2 0.4 0.2
v -0.2 0.4 -0.2
v -0.1 -0.4 0.1
v -0.1 -0.4 0
v -0.1 -0.4 -0.1
v -0.1 -0.3 0.1
v -0.1 -0.3 0
v -0.1 -0.2 0.1
v -0.1 -0.2 0
v -0.1 -0.1 0.1
v -0.1 -0.1 0
v -0.1 -0.1 -0.1
v 0.1 -0.4 0.1
v 0.1 -0.4 0
v 0.1 -0.4 -0.1
v 0.1 -0.2 0.1
v 0.1 -0.2 0
v 0.1 -0.2 -0.1
v 0.1 -0.1 0.1
v 0.1 -0.1 0
v 0.1 -0.1 -0.1
v 0.2 -0.1 0.2
v 0.2 -0.1 -0.2
v 0.2 0 0.2
v 0.2 0 -0.2
v 0.2 0.1 0.2
v 0.2 0.1 -0.2
v 0.2 0.3 0.2
v 0.2 0.3 -0.2
v 0.2 0.4 0.2
v 0.2 0.4 -0.2
v -0.2 -0.1 0.2
v -0.2 0 0.2
v -0.2 0.1 0.2
v -0.2 0.3 0.2
v -0.2 0.4 0.2
v 0.2 -0.1 0.2
v 0.2 0 0.2
v 0.2 0.1 0.2
v 0.2 0.3 0.2
v 0.2 0.4 0.2
v -0.1 -0.4 0.1
v -0.1 -0.3 0.1
v -0.1 -0.2 0.1
v -0.1 -0.1 0.1
v 0 -0.4 0.1
v 0 -0.3 0.1
v 0.1 -0.4 0.1
v 0.1 -0.2 0.1
v 0.1 -0.1 0.1
v -0.1 -0.4 -0.1
v -0.1 -0.1 -0.1
v 0 -0.4 -0.1
v 0 -0.2 -0.1
v 0.1 -0.4 -0.1
v 0.1 -0.2 -0.1
v 0.1 -0.1 -0.1
v -0.2 -0.1 -0.2
v -0.2 0 -0.2
v -0.2 0.1 -0.2
v -0.2 0.3 -0.2
v -0.2 0.4 -0.2
v 0.2 -0.1 -0.2
v 0.2 0 -0.2
v 0.2 0.1 -0.2
v 0.2 0.3 -0.2
v 0.2 0.4 -0.2
v -0.1 -0.4 0.1
v 0 -0.4 0.1
v 0.1 -0.4 0.1
v -0.1 -0.4 0
v 0 -0.4 0
v 0.1 -0.4 0
v -0.1 -0.4 -0.1
v 0 -0.4 -0.1
v 0.1 -0.4 -0.1
v -0.2 -0.1 0.2
v 0.2 -0.1 0.2
v -0.1 -0.1 0.1
v 0.1 -0.1 0.1
v -0.1 -0.1 0
v 0.1 -0.1 0
v -0.1 -0.1 -0.1
v 0.1 -0.1 -0.1
v -0.2 -0.1 -0.2
v 0.2 -0.1 -0.2
v -0.2 0.4 0.2
v 0.2 0.4 0.2
v -0.2 0.4 -0.2
v 0.2 0.4 -0.2

# faces
f 3/1/1 2/1/1 1/1/1
f 4/1/1 2/1/1 3/1/1
f 5/2/1 4/2/1 3/2/1
f 6/2/1 4/2/1 5/2/1
f 7/1/1 6/1/1 5/1/1
f 8/1/1 6/1/1 7/1/1
f 9/2/1 8/2/1 7/2/1
f 10/2/1 8/2/1 9/2/1
f 14/4/1 12/4/1 11/4/1
f 15/3/1 13/3/1 12/3/1
f 15/4/1 12/4/1 14/4/1
f 16/3/1 15/3/1 14/3/1
f 17/3/1 13/3/1 15/3/1
f 17/3/1 15/3/1 16/3/1
f 18/4/1 17/4/1 16/4/1
f 19/3/1 13/3/1 17/3/1
f 19/4/1 17/4/1 18/4/1
f 20/3/1 13/3/1 19/3/1
f 21/3/2 22/3/2 24/3/2
f 22/4/2 23/4/2 25/4/2
f 24/3/2 22/3/2 25/3/2
f 25/4/2 23/4/2 26/4/2
f 24/4/2 25/4/2 27/4/2
f 25/3/2 26/3/2 28/3/2
f 27/4/2 25/4/2 28/4/2
f 28/3/2 26/3/2 29/3/2
f 30/1/2 31/1/2 32/1/2
f 32/1/2 31/1/2 33/1/2
f 32/2/2 33/2/2 34/2/2
f 34/2/2 33/2/2 35/2/2
f 34/1/2 35/1/2 36/1/2
f 36/1/2 35/1/2 37/1/2
f 36/2/2 37/2/2 38/2/2
f 38/2/2 37/2/2 39/2/2
f 45/1/3 41/1/3 40/1/3
f 46/2/3 42/2/3 41/2/3
f 46/1/3 41/1/3 45/1/3
f 47/1/3 43/1/3 42/1/3
f 47/2/3 42/2/3 46/2/3
f 48/2/3 44/2/3 43/2/3
f 48/1/3 43/1/3 47/1/3
f 49/2/3 44/2/3 48/2/3
f 54/4/3 51/4/3 50/4/3
f 55/3/3 52/3/3 51/3/3
f 55/4/3 51/4/3 54/4/3
f 56/3/3 55/3/3 54/3/3
f 57/4/3 53/4/3 52/4/3
f 57/3/3 55/3/3 56/3/3
f 57/3/3 52/3/3 55/3/3
f 58/4/3 53/4/3 57/4/3
f 59/3/4 60/3/4 61/3/4
f 61/3/4 60/3/4 62/3/4
f 61/4/4 62/4/4 63/4/4
f 62/3/4 60/3/4 64/3/4
f 63/4/4 62/4/4 64/4/4
f 64/3/4 60/3/4 65/3/4
f 66/1/4 67/1/4 71/1/4
f 67/2/4 68/2/4 72/2/4
f 71/1/4 67/1/4 72/1/4
f 68/1/4 69/1/4 73/1/4
f 72/2/4 68/2/4 73/2/4
f 69/2/4 70/2/4 74/2/4
f 73/1/4 69/1/4 74/1/4
f 74/2/4 70/2/4 75/2/4
f 79/4/5 77/4/5 76/4/5
f 80/3/5 78/3/5 77/3/5
f 80/4/5 77/4/5 79/4/5
f 81/3/5 78/3/5 80/3/5
f 82/3/5 80/3/5 79/3/5
f 83/4/5 81/4/5 80/4/5
f 83/3/5 80/3/5 82/3/5
f 84/4/5 81/4/5 83/4/5
f 87/1/5 86/1/5 85/1/5
f 88/1/5 86/1/5 87/1/5
f 89/1/5 87/1/5 85/1/5
f 90/1/5 86/1/5 88/1/5
f 91/1/5 89/1/5 85/1/5
f 92/1/5 86/1/5 90/1/5
f 93/1/5 91/1/5 85/1/5
f 93/1/5 92/1/5 91/1/5
f 94/1/5 86/1/5 92/1/5
f 94/1/5 92/1/5 93/1/5
f 95/2/6 96/2/6 97/2/6
f 97/2/6 96/2/6 98/2/6
