# MagicaVoxel @ Ephtracy

# group
o 

# material
mtllib GlassBlock-1.mtl
usemtl palette

# normals
vn -1 0 0
vn 1 0 0
vn 0 0 1
vn 0 0 -1
vn 0 -1 0
vn 0 1 0

# texcoords
vt 0.939453 0.5
vt 0.943359 0.5
vt 0.947266 0.5
vt 0.951172 0.5
vt 0.982422 0.5

# verts
v -2 0 2
v -2 0 0.8
v -2 0.1 1.9
v -2 0.1 1
v -2 0.1 0.9
v -2 0.2 1.2
v -2 0.2 1
v -2 0.3 1.3
v -2 0.3 1.2
v -2 0.6 1.4
v -2 0.6 1.3
v -2 1.1 1.5
v -2 1.1 1.4
v -2 1.2 1.6
v -2 1.2 1.5
v -2 1.4 1.7
v -2 1.4 1.6
v -2 2.1 1.8
v -2 2.1 1.7
v -2 2.5 1.8
v -2 2.5 1.7
v -2 2.9 1.7
v -2 2.9 1.6
v -2 3.3 1.7
v -2 3.3 1.6
v -2 3.5 1.8
v -2 3.5 1.7
v -2 3.8 1.8
v -2 3.8 1
v -2 3.9 1.9
v -2 3.9 1.8
v -2 3.9 0.9
v -2 4 2
v -2 4 0.8
v 0.3 0 2
v 0.3 0 0.8
v 0.3 0.1 1.9
v 0.3 0.1 1
v 0.3 0.1 0.9
v 0.3 0.2 1.2
v 0.3 0.2 1
v 0.3 0.3 1.3
v 0.3 0.3 1.2
v 0.3 0.6 1.4
v 0.3 0.6 1.3
v 0.3 1.1 1.5
v 0.3 1.1 1.4
v 0.3 1.2 1.6
v 0.3 1.2 1.5
v 0.3 1.4 1.7
v 0.3 1.4 1.6
v 0.3 2.1 1.8
v 0.3 2.1 1.7
v 0.3 2.5 1.8
v 0.3 2.5 1.7
v 0.3 2.9 1.7
v 0.3 2.9 1.6
v 0.3 3.3 1.7
v 0.3 3.3 1.6
v 0.3 3.5 1.8
v 0.3 3.5 1.7
v 0.3 3.8 1.8
v 0.3 3.8 1
v 0.3 3.9 1.9
v 0.3 3.9 1.8
v 0.3 3.9 0.9
v 0.3 4 2
v 0.3 4 0.8
v -2 0 2
v -2 4 2
v -1.9 0.1 2
v -1.9 3.9 2
v 0.2 0.1 2
v 0.2 3.9 2
v 0.3 0 2
v 0.3 4 2
v -2 0 0.8
v -2 4 0.8
v -1.9 0.1 0.8
v -1.9 1.3 0.8
v -1.9 2.6 0.8
v -1.9 3.9 0.8
v -1.8 1.3 0.8
v -1.8 1.6 0.8
v -1.8 2.4 0.8
v -1.8 2.6 0.8
v -1.7 1.3 0.8
v -1.7 1.6 0.8
v -1.7 2.4 0.8
v -1.7 2.5 0.8
v -1.6 1.2 0.8
v -1.6 1.3 0.8
v -1.6 2.5 0.8
v -1.6 3 0.8
v -1.5 0.9 0.8
v -1.5 1.2 0.8
v -1.5 3 0.8
v -1.5 3.5 0.8
v -1.4 0.9 0.8
v -1.4 1.2 0.8
v -1.4 3.3 0.8
v -1.4 3.5 0.8
v -1.3 0.9 0.8
v -1.3 1.2 0.8
v -1.3 3.1 0.8
v -1.3 3.3 0.8
v -1.2 0.9 0.8
v -1.2 1.3 0.8
v -1.2 3 0.8
v -1.2 3.1 0.8
v -1.1 1.2 0.8
v -1.1 1.3 0.8
v -1.1 2.9 0.8
v -1.1 3 0.8
v -1 1.1 0.8
v -1 1.2 0.8
v -1 2.4 0.8
v -1 2.9 0.8
v -0.9 1.1 0.8
v -0.9 1.2 0.8
v -0.9 2.4 0.8
v -0.9 2.5 0.8
v -0.8 0.9 0.8
v -0.8 1.2 0.8
v -0.8 2.5 0.8
v -0.8 2.6 0.8
v -0.7 0.9 0.8
v -0.7 1.1 0.8
v -0.7 2.6 0.8
v -0.7 2.7 0.8
v -0.6 0.7 0.8
v -0.6 1.1 0.8
v -0.6 2.7 0.8
v -0.6 2.8 0.8
v -0.5 0.5 0.8
v -0.5 0.7 0.8
v -0.4 0.5 0.8
v -0.4 1.5 0.8
v -0.3 1.2 0.8
v -0.3 1.5 0.8
v -0.3 2.8 0.8
v -0.3 3.1 0.8
v -0.2 1 0.8
v -0.2 1.2 0.8
v -0.2 3.1 0.8
v -0.2 3.2 0.8
v -0.0999999 0.8 0.8
v -0.0999999 1 0.8
v -0.0999999 3.1 0.8
v -0.0999999 3.2 0.8
v 2.38419e-07 2.7 0.8
v 2.38419e-07 3.1 0.8
v 0.1 0.8 0.8
v 0.1 1.1 0.8
v 0.1 2.2 0.8
v 0.1 2.7 0.8
v 0.2 0.1 0.8
v 0.2 1.1 0.8
v 0.2 2.2 0.8
v 0.2 3.9 0.8
v 0.3 0 0.8
v 0.3 4 0.8
v -2 0 2
v 0.3 0 2
v -1.9 0 1.9
v 0.2 0 1.9
v -1.9 0 0.9
v 0.2 0 0.9
v -2 0 0.8
v 0.3 0 0.8
v -2 4 2
v 0.3 4 2
v -1.9 4 1.9
v 0.2 4 1.9
v -1.9 4 0.9
v 0.2 4 0.9
v -2 4 0.8
v 0.3 4 0.8

# faces
f 3/2/1 2/2/1 1/2/1
f 4/2/1 2/2/1 3/2/1
f 5/2/1 2/2/1 4/2/1
f 6/4/1 4/4/1 3/4/1
f 7/3/1 5/3/1 4/3/1
f 7/4/1 4/4/1 6/4/1
f 8/4/1 6/4/1 3/4/1
f 9/1/1 7/1/1 6/1/1
f 9/4/1 6/4/1 8/4/1
f 10/4/1 8/4/1 3/4/1
f 11/1/1 9/1/1 8/1/1
f 11/4/1 8/4/1 10/4/1
f 12/4/1 10/4/1 3/4/1
f 13/1/1 11/1/1 10/1/1
f 13/4/1 10/4/1 12/4/1
f 14/4/1 12/4/1 3/4/1
f 15/1/1 13/1/1 12/1/1
f 15/4/1 12/4/1 14/4/1
f 16/4/1 14/4/1 3/4/1
f 17/1/1 15/1/1 14/1/1
f 17/4/1 14/4/1 16/4/1
f 18/4/1 16/4/1 3/4/1
f 19/1/1 17/1/1 16/1/1
f 19/4/1 16/4/1 18/4/1
f 20/4/1 18/4/1 3/4/1
f 20/1/1 19/1/1 18/1/1
f 21/1/1 17/1/1 19/1/1
f 21/1/1 19/1/1 20/1/1
f 22/4/1 21/4/1 20/4/1
f 22/1/1 17/1/1 21/1/1
f 23/1/1 15/1/1 17/1/1
f 23/1/1 17/1/1 22/1/1
f 24/4/1 22/4/1 20/4/1
f 24/4/1 23/4/1 22/4/1
f 25/1/1 15/1/1 23/1/1
f 25/4/1 23/4/1 24/4/1
f 26/4/1 24/4/1 20/4/1
f 26/4/1 20/4/1 3/4/1
f 27/1/1 25/1/1 24/1/1
f 27/4/1 24/4/1 26/4/1
f 28/4/1 26/4/1 3/4/1
f 28/1/1 27/1/1 26/1/1
f 29/3/1 5/3/1 7/3/1
f 29/1/1 27/1/1 28/1/1
f 29/1/1 7/1/1 9/1/1
f 29/1/1 25/1/1 27/1/1
f 29/1/1 15/1/1 25/1/1
f 29/1/1 13/1/1 15/1/1
f 29/1/1 11/1/1 13/1/1
f 29/1/1 9/1/1 11/1/1
f 30/2/1 3/2/1 1/2/1
f 30/4/1 28/4/1 3/4/1
f 31/3/1 29/3/1 28/3/1
f 31/4/1 28/4/1 30/4/1
f 32/3/1 5/3/1 29/3/1
f 32/3/1 29/3/1 31/3/1
f 32/2/1 2/2/1 5/2/1
f 33/2/1 31/2/1 30/2/1
f 33/2/1 30/2/1 1/2/1
f 33/2/1 32/2/1 31/2/1
f 34/2/1 2/2/1 32/2/1
f 34/2/1 32/2/1 33/2/1
f 35/2/2 36/2/2 37/2/2
f 37/2/2 36/2/2 38/2/2
f 38/2/2 36/2/2 39/2/2
f 37/4/2 38/4/2 40/4/2
f 38/3/2 39/3/2 41/3/2
f 40/4/2 38/4/2 41/4/2
f 37/4/2 40/4/2 42/4/2
f 40/1/2 41/1/2 43/1/2
f 42/4/2 40/4/2 43/4/2
f 37/4/2 42/4/2 44/4/2
f 42/1/2 43/1/2 45/1/2
f 44/4/2 42/4/2 45/4/2
f 37/4/2 44/4/2 46/4/2
f 44/1/2 45/1/2 47/1/2
f 46/4/2 44/4/2 47/4/2
f 37/4/2 46/4/2 48/4/2
f 46/1/2 47/1/2 49/1/2
f 48/4/2 46/4/2 49/4/2
f 37/4/2 48/4/2 50/4/2
f 48/1/2 49/1/2 51/1/2
f 50/4/2 48/4/2 51/4/2
f 37/4/2 50/4/2 52/4/2
f 50/1/2 51/1/2 53/1/2
f 52/4/2 50/4/2 53/4/2
f 37/4/2 52/4/2 54/4/2
f 52/1/2 53/1/2 54/1/2
f 53/1/2 51/1/2 55/1/2
f 54/1/2 53/1/2 55/1/2
f 54/4/2 55/4/2 56/4/2
f 55/1/2 51/1/2 56/1/2
f 51/1/2 49/1/2 57/1/2
f 56/1/2 51/1/2 57/1/2
f 54/4/2 56/4/2 58/4/2
f 56/4/2 57/4/2 58/4/2
f 57/1/2 49/1/2 59/1/2
f 58/4/2 57/4/2 59/4/2
f 54/4/2 58/4/2 60/4/2
f 37/4/2 54/4/2 60/4/2
f 58/1/2 59/1/2 61/1/2
f 60/4/2 58/4/2 61/4/2
f 37/4/2 60/4/2 62/4/2
f 60/1/2 61/1/2 62/1/2
f 41/3/2 39/3/2 63/3/2
f 62/1/2 61/1/2 63/1/2
f 43/1/2 41/1/2 63/1/2
f 61/1/2 59/1/2 63/1/2
f 59/1/2 49/1/2 63/1/2
f 49/1/2 47/1/2 63/1/2
f 47/1/2 45/1/2 63/1/2
f 45/1/2 43/1/2 63/1/2
f 35/2/2 37/2/2 64/2/2
f 37/4/2 62/4/2 64/4/2
f 62/3/2 63/3/2 65/3/2
f 64/4/2 62/4/2 65/4/2
f 63/3/2 39/3/2 66/3/2
f 65/3/2 63/3/2 66/3/2
f 39/2/2 36/2/2 66/2/2
f 64/2/2 65/2/2 67/2/2
f 35/2/2 64/2/2 67/2/2
f 65/2/2 66/2/2 67/2/2
f 66/2/2 36/2/2 68/2/2
f 67/2/2 66/2/2 68/2/2
f 71/2/3 70/2/3 69/2/3
f 72/2/3 70/2/3 71/2/3
f 73/2/3 71/2/3 69/2/3
f 73/1/3 72/1/3 71/1/3
f 74/2/3 70/2/3 72/2/3
f 74/1/3 72/1/3 73/1/3
f 75/2/3 73/2/3 69/2/3
f 75/2/3 74/2/3 73/2/3
f 76/2/3 70/2/3 74/2/3
f 76/2/3 74/2/3 75/2/3
f 77/2/4 78/2/4 79/2/4
f 79/2/4 78/2/4 80/2/4
f 80/2/4 78/2/4 81/2/4
f 81/2/4 78/2/4 82/2/4
f 79/4/4 80/4/4 83/4/4
f 80/1/4 81/1/4 83/1/4
f 83/1/4 81/1/4 84/1/4
f 84/1/4 81/1/4 85/1/4
f 81/3/4 82/3/4 86/3/4
f 85/1/4 81/1/4 86/1/4
f 79/4/4 83/4/4 87/4/4
f 83/4/4 84/4/4 87/4/4
f 84/1/4 85/1/4 88/1/4
f 87/4/4 84/4/4 88/4/4
f 85/3/4 86/3/4 89/3/4
f 88/1/4 85/1/4 89/1/4
f 89/3/4 86/3/4 90/3/4
f 79/4/4 87/4/4 91/4/4
f 87/1/4 88/1/4 92/1/4
f 91/4/4 87/4/4 92/4/4
f 88/1/4 89/1/4 92/1/4
f 89/1/4 90/1/4 92/1/4
f 90/3/4 86/3/4 93/3/4
f 92/1/4 90/1/4 93/1/4
f 86/3/4 82/3/4 94/3/4
f 93/3/4 86/3/4 94/3/4
f 79/4/4 91/4/4 95/4/4
f 91/1/4 92/1/4 96/1/4
f 95/4/4 91/4/4 96/4/4
f 92/1/4 93/1/4 96/1/4
f 93/1/4 94/1/4 96/1/4
f 94/3/4 82/3/4 97/3/4
f 96/1/4 94/1/4 97/1/4
f 97/3/4 82/3/4 98/3/4
f 79/4/4 95/4/4 99/4/4
f 95/1/4 96/1/4 99/1/4
f 97/1/4 98/1/4 99/1/4
f 96/1/4 97/1/4 99/1/4
f 99/1/4 98/1/4 100/1/4
f 100/1/4 98/1/4 101/1/4
f 98/3/4 82/3/4 102/3/4
f 101/1/4 98/1/4 102/1/4
f 79/4/4 99/4/4 103/4/4
f 99/4/4 100/4/4 103/4/4
f 100/1/4 101/1/4 104/1/4
f 103/4/4 100/4/4 104/4/4
f 104/1/4 101/1/4 105/1/4
f 101/3/4 102/3/4 106/3/4
f 105/1/4 101/1/4 106/1/4
f 79/4/4 103/4/4 107/4/4
f 104/1/4 105/1/4 107/1/4
f 103/1/4 104/1/4 107/1/4
f 107/1/4 105/1/4 108/1/4
f 108/1/4 105/1/4 109/1/4
f 105/3/4 106/3/4 110/3/4
f 109/1/4 105/1/4 110/1/4
f 107/4/4 108/4/4 111/4/4
f 108/1/4 109/1/4 112/1/4
f 111/4/4 108/4/4 112/4/4
f 112/1/4 109/1/4 113/1/4
f 109/3/4 110/3/4 114/3/4
f 113/1/4 109/1/4 114/1/4
f 107/4/4 111/4/4 115/4/4
f 112/1/4 113/1/4 116/1/4
f 115/4/4 111/4/4 116/4/4
f 111/1/4 112/1/4 116/1/4
f 116/1/4 113/1/4 117/1/4
f 113/3/4 114/3/4 118/3/4
f 117/1/4 113/1/4 118/1/4
f 107/4/4 115/4/4 119/4/4
f 116/1/4 117/1/4 119/1/4
f 115/1/4 116/1/4 119/1/4
f 119/1/4 117/1/4 120/1/4
f 117/3/4 118/3/4 121/3/4
f 120/1/4 117/1/4 121/1/4
f 121/3/4 118/3/4 122/3/4
f 79/4/4 107/4/4 123/4/4
f 119/4/4 120/4/4 123/4/4
f 107/4/4 119/4/4 123/4/4
f 121/1/4 122/1/4 124/1/4
f 123/4/4 120/4/4 124/4/4
f 120/1/4 121/1/4 124/1/4
f 122/3/4 118/3/4 125/3/4
f 124/1/4 122/1/4 125/1/4
f 125/3/4 118/3/4 126/3/4
f 123/1/4 124/1/4 127/1/4
f 79/4/4 123/4/4 127/4/4
f 125/1/4 126/1/4 127/1/4
f 124/1/4 125/1/4 127/1/4
f 127/1/4 126/1/4 128/1/4
f 126/3/4 118/3/4 129/3/4
f 128/1/4 126/1/4 129/1/4
f 129/3/4 118/3/4 130/3/4
f 127/4/4 128/4/4 131/4/4
f 79/4/4 127/4/4 131/4/4
f 129/1/4 130/1/4 132/1/4
f 131/4/4 128/4/4 132/4/4
f 128/1/4 129/1/4 132/1/4
f 130/3/4 118/3/4 133/3/4
f 132/1/4 130/1/4 133/1/4
f 133/3/4 118/3/4 134/3/4
f 79/4/4 131/4/4 135/4/4
f 131/1/4 132/1/4 136/1/4
f 135/4/4 131/4/4 136/4/4
f 132/1/4 133/1/4 136/1/4
f 133/1/4 134/1/4 136/1/4
f 79/4/4 135/4/4 137/4/4
f 135/1/4 136/1/4 137/1/4
f 136/1/4 134/1/4 138/1/4
f 137/1/4 136/1/4 138/1/4
f 137/4/4 138/4/4 139/4/4
f 138/1/4 134/1/4 140/1/4
f 139/4/4 138/4/4 140/4/4
f 134/3/4 118/3/4 141/3/4
f 140/1/4 134/1/4 141/1/4
f 114/3/4 110/3/4 142/3/4
f 141/3/4 118/3/4 142/3/4
f 110/3/4 106/3/4 142/3/4
f 118/3/4 114/3/4 142/3/4
f 137/4/4 139/4/4 143/4/4
f 140/1/4 141/1/4 144/1/4
f 143/4/4 139/4/4 144/4/4
f 139/1/4 140/1/4 144/1/4
f 141/1/4 142/1/4 144/1/4
f 142/3/4 106/3/4 145/3/4
f 144/1/4 142/1/4 145/1/4
f 145/3/4 106/3/4 146/3/4
f 137/4/4 143/4/4 147/4/4
f 143/1/4 144/1/4 148/1/4
f 147/4/4 143/4/4 148/4/4
f 144/1/4 145/1/4 148/1/4
f 145/1/4 146/1/4 148/1/4
f 148/1/4 146/1/4 149/1/4
f 146/3/4 106/3/4 150/3/4
f 149/1/4 146/1/4 150/1/4
f 148/1/4 149/1/4 151/1/4
f 147/1/4 148/1/4 151/1/4
f 149/3/4 150/3/4 152/3/4
f 151/1/4 149/1/4 152/1/4
f 137/4/4 147/4/4 153/4/4
f 147/1/4 151/1/4 153/1/4
f 153/1/4 151/1/4 154/1/4
f 154/1/4 151/1/4 155/1/4
f 151/3/4 152/3/4 156/3/4
f 155/1/4 151/1/4 156/1/4
f 77/2/4 79/2/4 157/2/4
f 79/4/4 137/4/4 157/4/4
f 137/4/4 153/4/4 157/4/4
f 153/4/4 154/4/4 157/4/4
f 154/1/4 155/1/4 158/1/4
f 157/4/4 154/4/4 158/4/4
f 155/3/4 156/3/4 159/3/4
f 158/1/4 155/1/4 159/1/4
f 156/3/4 152/3/4 160/3/4
f 159/3/4 156/3/4 160/3/4
f 82/2/4 78/2/4 160/2/4
f 106/3/4 102/3/4 160/3/4
f 152/3/4 150/3/4 160/3/4
f 102/3/4 82/3/4 160/3/4
f 150/3/4 106/3/4 160/3/4
f 158/2/4 159/2/4 161/2/4
f 77/2/4 157/2/4 161/2/4
f 159/2/4 160/2/4 161/2/4
f 157/2/4 158/2/4 161/2/4
f 160/2/4 78/2/4 162/2/4
f 161/2/4 160/2/4 162/2/4
f 165/2/5 164/2/5 163/2/5
f 166/2/5 164/2/5 165/2/5
f 167/2/5 165/2/5 163/2/5
f 167/3/5 166/3/5 165/3/5
f 168/2/5 164/2/5 166/2/5
f 168/3/5 166/3/5 167/3/5
f 169/2/5 167/2/5 163/2/5
f 169/2/5 168/2/5 167/2/5
f 170/2/5 164/2/5 168/2/5
f 170/2/5 168/2/5 169/2/5
f 171/2/6 172/2/6 173/2/6
f 173/2/6 172/2/6 174/2/6
f 171/2/6 173/2/6 175/2/6
f 173/3/6 174/3/6 175/3/6
f 174/2/6 172/2/6 176/2/6
f 175/3/6 174/3/6 176/3/6
f 171/2/6 175/2/6 177/2/6
f 175/2/6 176/2/6 177/2/6
f 176/2/6 172/2/6 178/2/6
f 177/2/6 176/2/6 178/2/6
