# MagicaVoxel @ Ephtracy

# group
o 

# material
mtllib GlassBlock-0.mtl
usemtl palette

# normals
vn -1 0 0
vn 1 0 0
vn 0 0 1
vn 0 0 -1
vn 0 -1 0
vn 0 1 0

# texcoords
vt 0.939453 0.5
vt 0.943359 0.5
vt 0.947266 0.5
vt 0.951172 0.5
vt 0.982422 0.5

# verts
v -1.1 -2 0.6
v -1.1 -2 -0.6
v -1.1 -1.9 0.5
v -1.1 -1.9 -0.4
v -1.1 -1.9 -0.5
v -1.1 -1.8 0.4
v -1.1 -1.8 -0.4
v -1.1 1.1 0.3
v -1.1 1.1 5.96046e-08
v -1.1 1.5 0.3
v -1.1 1.5 5.96046e-08
v -1.1 1.8 0.4
v -1.1 1.8 -0.4
v -1.1 1.9 0.5
v -1.1 1.9 0.4
v -1.1 1.9 -0.5
v -1.1 2 0.6
v -1.1 2 -0.6
v 1.2 -2 0.6
v 1.2 -2 -0.6
v 1.2 -1.9 0.5
v 1.2 -1.9 -0.4
v 1.2 -1.9 -0.5
v 1.2 -1.8 0.4
v 1.2 -1.8 -0.4
v 1.2 1.1 0.3
v 1.2 1.1 5.96046e-08
v 1.2 1.4 0.3
v 1.2 1.4 5.96046e-08
v 1.2 1.8 0.4
v 1.2 1.8 -0.4
v 1.2 1.9 0.5
v 1.2 1.9 0.4
v 1.2 1.9 -0.5
v 1.2 2 0.6
v 1.2 2 -0.6
v -1.1 -2 0.6
v -1.1 2 0.6
v -1 -1.9 0.6
v -1 1.9 0.6
v 1.1 -1.9 0.6
v 1.1 1.9 0.6
v 1.2 -2 0.6
v 1.2 2 0.6
v -1.1 -2 -0.6
v -1.1 2 -0.6
v -1 -1.9 -0.6
v -1 1.9 -0.6
v -0.9 -1.9 -0.6
v -0.9 -1.8 -0.6
v -0.9 1.8 -0.6
v 0.2 0.8 -0.6
v 0.2 1.4 -0.6
v 0.7 0.8 -0.6
v 0.7 1.4 -0.6
v 1 -1.8 -0.6
v 1 1.8 -0.6
v 1.1 -1.9 -0.6
v 1.1 1.8 -0.6
v 1.1 1.9 -0.6
v 1.2 -2 -0.6
v 1.2 2 -0.6
v -1.1 -2 0.6
v 1.2 -2 0.6
v -1 -2 0.5
v 1.1 -2 0.5
v -1 -2 -0.5
v 1.1 -2 -0.5
v -1.1 -2 -0.6
v 1.2 -2 -0.6
v -1.1 2 0.6
v 1.2 2 0.6
v -1 2 0.5
v 1.1 2 0.5
v -1 2 -0.5
v 1.1 2 -0.5
v -1.1 2 -0.6
v 1.2 2 -0.6

# faces
f 3/2/1 2/2/1 1/2/1
f 4/2/1 2/2/1 3/2/1
f 5/2/1 2/2/1 4/2/1
f 6/4/1 4/4/1 3/4/1
f 7/3/1 5/3/1 4/3/1
f 7/4/1 4/4/1 6/4/1
f 8/1/1 7/1/1 6/1/1
f 9/1/1 7/1/1 8/1/1
f 10/1/1 8/1/1 6/1/1
f 10/3/1 9/3/1 8/3/1
f 11/1/1 7/1/1 9/1/1
f 11/3/1 9/3/1 10/3/1
f 12/4/1 6/4/1 3/4/1
f 12/1/1 10/1/1 6/1/1
f 12/1/1 11/1/1 10/1/1
f 13/1/1 7/1/1 11/1/1
f 13/1/1 11/1/1 12/1/1
f 13/3/1 5/3/1 7/3/1
f 14/2/1 3/2/1 1/2/1
f 14/4/1 12/4/1 3/4/1
f 15/3/1 13/3/1 12/3/1
f 15/4/1 12/4/1 14/4/1
f 16/3/1 5/3/1 13/3/1
f 16/3/1 13/3/1 15/3/1
f 16/2/1 2/2/1 5/2/1
f 17/2/1 15/2/1 14/2/1
f 17/2/1 14/2/1 1/2/1
f 17/2/1 16/2/1 15/2/1
f 18/2/1 2/2/1 16/2/1
f 18/2/1 16/2/1 17/2/1
f 19/2/2 20/2/2 21/2/2
f 21/2/2 20/2/2 22/2/2
f 22/2/2 20/2/2 23/2/2
f 21/4/2 22/4/2 24/4/2
f 22/3/2 23/3/2 25/3/2
f 24/4/2 22/4/2 25/4/2
f 24/1/2 25/1/2 26/1/2
f 26/1/2 25/1/2 27/1/2
f 24/1/2 26/1/2 28/1/2
f 26/3/2 27/3/2 28/3/2
f 27/1/2 25/1/2 29/1/2
f 28/3/2 27/3/2 29/3/2
f 21/4/2 24/4/2 30/4/2
f 24/1/2 28/1/2 30/1/2
f 28/1/2 29/1/2 30/1/2
f 29/1/2 25/1/2 31/1/2
f 30/1/2 29/1/2 31/1/2
f 25/3/2 23/3/2 31/3/2
f 19/2/2 21/2/2 32/2/2
f 21/4/2 30/4/2 32/4/2
f 30/3/2 31/3/2 33/3/2
f 32/4/2 30/4/2 33/4/2
f 31/3/2 23/3/2 34/3/2
f 33/3/2 31/3/2 34/3/2
f 23/2/2 20/2/2 34/2/2
f 32/2/2 33/2/2 35/2/2
f 19/2/2 32/2/2 35/2/2
f 33/2/2 34/2/2 35/2/2
f 34/2/2 20/2/2 36/2/2
f 35/2/2 34/2/2 36/2/2
f 39/2/3 38/2/3 37/2/3
f 40/2/3 38/2/3 39/2/3
f 41/2/3 39/2/3 37/2/3
f 41/1/3 40/1/3 39/1/3
f 42/2/3 38/2/3 40/2/3
f 42/1/3 40/1/3 41/1/3
f 43/2/3 41/2/3 37/2/3
f 43/2/3 42/2/3 41/2/3
f 44/2/3 38/2/3 42/2/3
f 44/2/3 42/2/3 43/2/3
f 45/2/4 46/2/4 47/2/4
f 47/2/4 46/2/4 48/2/4
f 45/2/4 47/2/4 49/2/4
f 47/3/4 48/3/4 49/3/4
f 49/3/4 48/3/4 50/3/4
f 50/3/4 48/3/4 51/3/4
f 50/1/4 51/1/4 52/1/4
f 52/1/4 51/1/4 53/1/4
f 50/1/4 52/1/4 54/1/4
f 52/3/4 53/3/4 54/3/4
f 53/1/4 51/1/4 55/1/4
f 54/3/4 53/3/4 55/3/4
f 49/4/4 50/4/4 56/4/4
f 50/1/4 54/1/4 56/1/4
f 54/1/4 55/1/4 56/1/4
f 55/1/4 51/1/4 57/1/4
f 56/1/4 55/1/4 57/1/4
f 51/3/4 48/3/4 57/3/4
f 45/2/4 49/2/4 58/2/4
f 49/4/4 56/4/4 58/4/4
f 56/4/4 57/4/4 58/4/4
f 57/3/4 48/3/4 59/3/4
f 58/4/4 57/4/4 59/4/4
f 48/2/4 46/2/4 60/2/4
f 59/3/4 48/3/4 60/3/4
f 58/2/4 59/2/4 61/2/4
f 45/2/4 58/2/4 61/2/4
f 59/2/4 60/2/4 61/2/4
f 60/2/4 46/2/4 62/2/4
f 61/2/4 60/2/4 62/2/4
f 65/2/5 64/2/5 63/2/5
f 66/2/5 64/2/5 65/2/5
f 67/2/5 65/2/5 63/2/5
f 67/3/5 66/3/5 65/3/5
f 68/2/5 64/2/5 66/2/5
f 68/3/5 66/3/5 67/3/5
f 69/2/5 67/2/5 63/2/5
f 69/2/5 68/2/5 67/2/5
f 70/2/5 64/2/5 68/2/5
f 70/2/5 68/2/5 69/2/5
f 71/2/6 72/2/6 73/2/6
f 73/2/6 72/2/6 74/2/6
f 71/2/6 73/2/6 75/2/6
f 73/3/6 74/3/6 75/3/6
f 74/2/6 72/2/6 76/2/6
f 75/3/6 74/3/6 76/3/6
f 71/2/6 75/2/6 77/2/6
f 75/2/6 76/2/6 77/2/6
f 76/2/6 72/2/6 78/2/6
f 77/2/6 76/2/6 78/2/6
