# MagicaVoxel @ Ephtracy

# group
o 

# material
mtllib TreeBlock-2.mtl
usemtl palette

# normals
vn -1 0 0
vn 1 0 0
vn 0 0 1
vn 0 0 -1
vn 0 -1 0
vn 0 1 0

# texcoords
vt 0.908203 0.5
vt 0.912109 0.5
vt 0.916016 0.5
vt 0.923828 0.5
vt 0.974609 0.5

# verts
v -1.1 -2 0.6
v -1.1 -2 -0.6
v -1.1 -1.9 0.5
v -1.1 -1.9 -0.4
v -1.1 -1.9 -0.5
v -1.1 -1.8 0.4
v -1.1 -1.8 0.3
v -1.1 -1.8 0.2
v -1.1 -1.8 -0.4
v -1.1 -1.7 -0.2
v -1.1 -1.7 -0.3
v -1.1 -1.4 0.3
v -1.1 -1.4 0.2
v -1.1 -1.2 0.2
v -1.1 -1.2 0.1
v -1.1 -1.2 -0.2
v -1.1 -1.2 -0.3
v -1.1 -1 0.4
v -1.1 -1 0.3
v -1.1 -1 -0.1
v -1.1 -1 -0.2
v -1.1 -0.8 0.2
v -1.1 -0.8 0.1
v -1.1 -0.6 -0.1
v -1.1 -0.6 -0.2
v -1.1 -0.5 0.4
v -1.1 -0.5 0.3
v -1.1 -0.4 5.96046e-08
v -1.1 -0.4 -0.1
v -1.1 -0.2 0.2
v -1.1 -0.2 0.1
v -1.1 2.38419e-07 5.96046e-08
v -1.1 2.38419e-07 -0.1
v -1.1 0.1 0.4
v -1.1 0.1 0.3
v -1.1 0.2 0.2
v -1.1 0.2 0.1
v -1.1 0.5 0.4
v -1.1 0.5 0.3
v -1.1 0.5 -0.2
v -1.1 0.5 -0.3
v -1.1 0.6 0.2
v -1.1 0.6 0.1
v -1.1 0.9 -0.2
v -1.1 0.9 -0.3
v -1.1 1 0.2
v -1.1 1 0.1
v -1.1 1 5.96046e-08
v -1.1 1 -0.1
v -1.1 1.3 0.3
v -1.1 1.3 0.2
v -1.1 1.5 5.96046e-08
v -1.1 1.5 -0.1
v -1.1 1.7 0.3
v -1.1 1.7 0.2
v -1.1 1.8 0.5
v -1.1 1.8 0.4
v -1.1 1.8 -0.4
v -1.1 1.9 0.5
v -1.1 1.9 -0.5
v -1.1 2 0.6
v -1.1 2 -0.6
v 1.2 -2 0.6
v 1.2 -2 -0.6
v 1.2 -1.9 0.5
v 1.2 -1.9 -0.4
v 1.2 -1.9 -0.5
v 1.2 -1.8 0.4
v 1.2 -1.8 0.1
v 1.2 -1.8 5.96046e-08
v 1.2 -1.8 -0.4
v 1.2 -1.5 0.1
v 1.2 -1.5 5.96046e-08
v 1.2 -1.4 -0.2
v 1.2 -1.4 -0.3
v 1.2 -1.3 0.3
v 1.2 -1.3 0.2
v 1.2 -1 -0.2
v 1.2 -1 -0.3
v 1.2 -0.9 0.3
v 1.2 -0.9 0.2
v 1.2 -0.8 -0.2
v 1.2 -0.8 -0.3
v 1.2 -0.7 0.2
v 1.2 -0.7 0.1
v 1.2 -0.5 -0.2
v 1.2 -0.5 -0.3
v 1.2 -0.4 0.2
v 1.2 -0.4 0.1
v 1.2 -0.4 -0.2
v 1.2 -0.4 -0.3
v 1.2 -0.0999999 -0.2
v 1.2 -0.0999999 -0.3
v 1.2 2.38419e-07 0.1
v 1.2 2.38419e-07 5.96046e-08
v 1.2 0.1 -0.2
v 1.2 0.1 -0.3
v 1.2 0.2 0.3
v 1.2 0.2 0.2
v 1.2 0.3 0.1
v 1.2 0.3 5.96046e-08
v 1.2 0.5 -0.2
v 1.2 0.5 -0.3
v 1.2 0.7 0.3
v 1.2 0.7 0.2
v 1.2 0.7 -0.3
v 1.2 0.7 -0.4
v 1.2 1.1 -0.1
v 1.2 1.1 -0.2
v 1.2 1.1 -0.3
v 1.2 1.1 -0.4
v 1.2 1.4 0.2
v 1.2 1.4 0.1
v 1.2 1.5 -0.1
v 1.2 1.5 -0.2
v 1.2 1.7 0.2
v 1.2 1.7 0.1
v 1.2 1.8 0.5
v 1.2 1.8 0.4
v 1.2 1.8 -0.4
v 1.2 1.9 0.5
v 1.2 1.9 -0.5
v 1.2 2 0.6
v 1.2 2 -0.6
v -1.1 -2 0.6
v -1.1 2 0.6
v -1 -1.9 0.6
v -1 1.9 0.6
v 1.1 -1.9 0.6
v 1.1 1.9 0.6
v 1.2 -2 0.6
v 1.2 2 0.6
v -1.1 -2 -0.6
v -1.1 2 -0.6
v -1 -1.9 -0.6
v -1 1.9 -0.6
v -0.9 -1.9 -0.6
v -0.9 -1.8 -0.6
v -0.9 1.8 -0.6
v -0.8 -0.3 -0.6
v -0.8 0.1 -0.6
v -0.7 -0.3 -0.6
v -0.7 0.1 -0.6
v -0.6 -1.7 -0.6
v -0.6 -1.3 -0.6
v -0.6 -0.9 -0.6
v -0.6 -0.6 -0.6
v -0.6 0.8 -0.6
v -0.6 1.3 -0.6
v -0.5 -1.7 -0.6
v -0.5 -1.3 -0.6
v -0.5 -0.9 -0.6
v -0.5 -0.6 -0.6
v -0.5 0.8 -0.6
v -0.5 1.3 -0.6
v -0.3 0.2 -0.6
v -0.3 0.6 -0.6
v -0.3 1.1 -0.6
v -0.3 1.5 -0.6
v -0.2 -1.7 -0.6
v -0.2 -1.3 -0.6
v -0.2 0.2 -0.6
v -0.2 0.6 -0.6
v -0.2 1.1 -0.6
v -0.2 1.5 -0.6
v -0.1 -1.7 -0.6
v -0.1 -1.3 -0.6
v 0 -1 -0.6
v 0 -0.6 -0.6
v 0 0.6 -0.6
v 0 1 -0.6
v 0.1 -1 -0.6
v 0.1 -0.6 -0.6
v 0.1 -0.3 -0.6
v 0.1 0.1 -0.6
v 0.1 0.6 -0.6
v 0.1 1 -0.6
v 0.2 -0.3 -0.6
v 0.2 0.1 -0.6
v 0.2 1.3 -0.6
v 0.2 1.6 -0.6
v 0.3 1.3 -0.6
v 0.3 1.6 -0.6
v 0.5 -0.3 -0.6
v 0.5 0.1 -0.6
v 0.5 1 -0.6
v 0.5 1.4 -0.6
v 0.6 -1.6 -0.6
v 0.6 -1.3 -0.6
v 0.6 -1.1 -0.6
v 0.6 -0.7 -0.6
v 0.6 -0.3 -0.6
v 0.6 0.1 -0.6
v 0.6 1 -0.6
v 0.6 1.4 -0.6
v 0.7 -1.6 -0.6
v 0.7 -1.3 -0.6
v 0.7 -1.1 -0.6
v 0.7 -0.7 -0.6
v 0.7 0.2 -0.6
v 0.7 0.6 -0.6
v 0.8 0.2 -0.6
v 0.8 0.6 -0.6
v 1 -1.8 -0.6
v 1 1.8 -0.6
v 1.1 -1.9 -0.6
v 1.1 1.8 -0.6
v 1.1 1.9 -0.6
v 1.2 -2 -0.6
v 1.2 2 -0.6
v -1.1 -2 0.6
v 1.2 -2 0.6
v -1 -2 0.5
v 1.1 -2 0.5
v -1 -2 -0.5
v 1.1 -2 -0.5
v -1.1 -2 -0.6
v 1.2 -2 -0.6
v -1.1 2 0.6
v 1.2 2 0.6
v -1 2 0.5
v 1.1 2 0.5
v -0.9 2 0.4
v -0.8 2 0.4
v -0.3 2 0.3
v -0.2 2 0.3
v 0.2 2 0.3
v 0.3 2 0.3
v 0.5 2 0.3
v 0.6 2 0.3
v -0.9 2 0.1
v -0.8 2 0.1
v -0.5 2 5.96046e-08
v -0.4 2 5.96046e-08
v 0.8 2 5.96046e-08
v 0.9 2 5.96046e-08
v -0.8 2 -0.1
v -0.7 2 -0.1
v -0.3 2 -0.1
v -0.2 2 -0.1
v 0.2 2 -0.1
v 0.3 2 -0.1
v 0.1 2 -0.2
v 0.2 2 -0.2
v 0.5 2 -0.2
v 0.6 2 -0.2
v -0.5 2 -0.3
v -0.4 2 -0.3
v 0.8 2 -0.3
v 0.9 2 -0.3
v -0.8 2 -0.4
v -0.7 2 -0.4
v -1 2 -0.5
v 0.1 2 -0.5
v 0.2 2 -0.5
v 1.1 2 -0.5
v -1.1 2 -0.6
v 1.2 2 -0.6

# faces
f 3/4/1 2/4/1 1/4/1
f 4/4/1 2/4/1 3/4/1
f 5/4/1 2/4/1 4/4/1
f 6/3/1 4/3/1 3/3/1
f 7/3/1 4/3/1 6/3/1
f 8/3/1 4/3/1 7/3/1
f 9/2/1 5/2/1 4/2/1
f 9/3/1 4/3/1 8/3/1
f 10/1/1 9/1/1 8/1/1
f 11/1/1 9/1/1 10/1/1
f 12/3/1 8/3/1 7/3/1
f 12/1/1 7/1/1 6/1/1
f 13/1/1 10/1/1 8/1/1
f 13/3/1 8/3/1 12/3/1
f 14/1/1 13/1/1 12/1/1
f 14/1/1 10/1/1 13/1/1
f 15/1/1 10/1/1 14/1/1
f 16/2/1 11/2/1 10/2/1
f 16/1/1 10/1/1 15/1/1
f 17/1/1 9/1/1 11/1/1
f 17/2/1 11/2/1 16/2/1
f 18/3/1 6/3/1 3/3/1
f 18/1/1 12/1/1 6/1/1
f 18/1/1 14/1/1 12/1/1
f 19/1/1 14/1/1 18/1/1
f 20/1/1 16/1/1 15/1/1
f 20/1/1 17/1/1 16/1/1
f 21/1/1 17/1/1 20/1/1
f 22/1/1 14/1/1 19/1/1
f 22/2/1 15/2/1 14/2/1
f 23/1/1 20/1/1 15/1/1
f 23/2/1 15/2/1 22/2/1
f 24/3/1 21/3/1 20/3/1
f 24/1/1 20/1/1 23/1/1
f 24/1/1 23/1/1 22/1/1
f 25/1/1 17/1/1 21/1/1
f 25/3/1 21/3/1 24/3/1
f 26/3/1 19/3/1 18/3/1
f 26/3/1 18/3/1 3/3/1
f 27/1/1 24/1/1 22/1/1
f 27/3/1 19/3/1 26/3/1
f 27/1/1 22/1/1 19/1/1
f 27/1/1 25/1/1 24/1/1
f 28/1/1 27/1/1 26/1/1
f 28/1/1 25/1/1 27/1/1
f 29/1/1 25/1/1 28/1/1
f 30/1/1 28/1/1 26/1/1
f 31/1/1 28/1/1 30/1/1
f 32/2/1 29/2/1 28/2/1
f 32/1/1 28/1/1 31/1/1
f 33/1/1 25/1/1 29/1/1
f 33/2/1 29/2/1 32/2/1
f 34/3/1 26/3/1 3/3/1
f 34/1/1 30/1/1 26/1/1
f 35/1/1 30/1/1 34/1/1
f 36/3/1 31/3/1 30/3/1
f 36/1/1 30/1/1 35/1/1
f 37/1/1 32/1/1 31/1/1
f 37/3/1 31/3/1 36/3/1
f 37/1/1 33/1/1 32/1/1
f 38/2/1 35/2/1 34/2/1
f 38/3/1 34/3/1 3/3/1
f 39/1/1 36/1/1 35/1/1
f 39/2/1 35/2/1 38/2/1
f 39/1/1 37/1/1 36/1/1
f 40/1/1 25/1/1 33/1/1
f 40/1/1 37/1/1 39/1/1
f 40/1/1 17/1/1 25/1/1
f 40/1/1 33/1/1 37/1/1
f 41/1/1 9/1/1 17/1/1
f 41/1/1 17/1/1 40/1/1
f 42/1/1 39/1/1 38/1/1
f 42/1/1 40/1/1 39/1/1
f 43/1/1 40/1/1 42/1/1
f 44/3/1 41/3/1 40/3/1
f 44/1/1 40/1/1 43/1/1
f 45/1/1 9/1/1 41/1/1
f 45/3/1 41/3/1 44/3/1
f 46/3/1 43/3/1 42/3/1
f 46/1/1 42/1/1 38/1/1
f 47/1/1 44/1/1 43/1/1
f 47/3/1 43/3/1 46/3/1
f 47/1/1 45/1/1 44/1/1
f 48/1/1 45/1/1 47/1/1
f 49/1/1 45/1/1 48/1/1
f 50/1/1 46/1/1 38/1/1
f 50/1/1 47/1/1 46/1/1
f 50/1/1 48/1/1 47/1/1
f 51/1/1 48/1/1 50/1/1
f 52/2/1 49/2/1 48/2/1
f 52/1/1 48/1/1 51/1/1
f 53/1/1 45/1/1 49/1/1
f 53/2/1 49/2/1 52/2/1
f 54/3/1 51/3/1 50/3/1
f 54/1/1 50/1/1 38/1/1
f 55/1/1 52/1/1 51/1/1
f 55/3/1 51/3/1 54/3/1
f 55/1/1 53/1/1 52/1/1
f 56/4/1 3/4/1 1/4/1
f 56/3/1 38/3/1 3/3/1
f 57/1/1 54/1/1 38/1/1
f 57/3/1 38/3/1 56/3/1
f 57/1/1 55/1/1 54/1/1
f 58/1/1 53/1/1 55/1/1
f 58/1/1 55/1/1 57/1/1
f 58/1/1 9/1/1 45/1/1
f 58/2/1 5/2/1 9/2/1
f 58/1/1 45/1/1 53/1/1
f 59/2/1 57/2/1 56/2/1
f 59/4/1 56/4/1 1/4/1
f 59/2/1 58/2/1 57/2/1
f 60/2/1 5/2/1 58/2/1
f 60/2/1 58/2/1 59/2/1
f 60/4/1 2/4/1 5/4/1
f 61/4/1 59/4/1 1/4/1
f 61/4/1 60/4/1 59/4/1
f 62/4/1 2/4/1 60/4/1
f 62/4/1 60/4/1 61/4/1
f 63/4/2 64/4/2 65/4/2
f 65/4/2 64/4/2 66/4/2
f 66/4/2 64/4/2 67/4/2
f 65/3/2 66/3/2 68/3/2
f 68/3/2 66/3/2 69/3/2
f 69/3/2 66/3/2 70/3/2
f 66/2/2 67/2/2 71/2/2
f 70/3/2 66/3/2 71/3/2
f 69/2/2 70/2/2 72/2/2
f 68/1/2 69/1/2 72/1/2
f 70/1/2 71/1/2 73/1/2
f 72/2/2 70/2/2 73/2/2
f 72/1/2 73/1/2 74/1/2
f 73/1/2 71/1/2 74/1/2
f 74/1/2 71/1/2 75/1/2
f 68/1/2 72/1/2 76/1/2
f 72/1/2 74/1/2 76/1/2
f 76/1/2 74/1/2 77/1/2
f 74/3/2 75/3/2 78/3/2
f 77/1/2 74/1/2 78/1/2
f 75/1/2 71/1/2 79/1/2
f 78/3/2 75/3/2 79/3/2
f 76/2/2 77/2/2 80/2/2
f 68/1/2 76/1/2 80/1/2
f 77/1/2 78/1/2 81/1/2
f 80/2/2 77/2/2 81/2/2
f 78/1/2 79/1/2 81/1/2
f 80/1/2 81/1/2 82/1/2
f 81/1/2 79/1/2 82/1/2
f 79/1/2 71/1/2 83/1/2
f 82/1/2 79/1/2 83/1/2
f 80/1/2 82/1/2 84/1/2
f 84/1/2 82/1/2 85/1/2
f 82/2/2 83/2/2 86/2/2
f 85/1/2 82/1/2 86/1/2
f 83/1/2 71/1/2 87/1/2
f 86/2/2 83/2/2 87/2/2
f 84/3/2 85/3/2 88/3/2
f 80/1/2 84/1/2 88/1/2
f 85/1/2 86/1/2 89/1/2
f 88/3/2 85/3/2 89/3/2
f 86/1/2 87/1/2 89/1/2
f 89/1/2 87/1/2 90/1/2
f 87/1/2 71/1/2 91/1/2
f 90/1/2 87/1/2 91/1/2
f 89/1/2 90/1/2 92/1/2
f 88/1/2 89/1/2 92/1/2
f 90/3/2 91/3/2 92/3/2
f 91/1/2 71/1/2 93/1/2
f 92/3/2 91/3/2 93/3/2
f 88/1/2 92/1/2 94/1/2
f 92/1/2 93/1/2 94/1/2
f 94/1/2 93/1/2 95/1/2
f 95/1/2 93/1/2 96/1/2
f 93/1/2 71/1/2 97/1/2
f 96/1/2 93/1/2 97/1/2
f 68/1/2 80/1/2 98/1/2
f 80/1/2 88/1/2 98/1/2
f 88/1/2 94/1/2 98/1/2
f 98/1/2 94/1/2 99/1/2
f 94/3/2 95/3/2 100/3/2
f 99/1/2 94/1/2 100/1/2
f 95/1/2 96/1/2 101/1/2
f 100/3/2 95/3/2 101/3/2
f 96/2/2 97/2/2 102/2/2
f 101/1/2 96/1/2 102/1/2
f 100/1/2 101/1/2 102/1/2
f 97/1/2 71/1/2 103/1/2
f 102/2/2 97/2/2 103/2/2
f 68/1/2 98/1/2 104/1/2
f 98/2/2 99/2/2 104/2/2
f 100/1/2 102/1/2 105/1/2
f 104/2/2 99/2/2 105/2/2
f 99/1/2 100/1/2 105/1/2
f 102/1/2 103/1/2 105/1/2
f 103/1/2 71/1/2 106/1/2
f 105/1/2 103/1/2 106/1/2
f 71/2/2 67/2/2 107/2/2
f 106/1/2 71/1/2 107/1/2
f 105/1/2 106/1/2 108/1/2
f 104/1/2 105/1/2 108/1/2
f 108/1/2 106/1/2 109/1/2
f 106/3/2 107/3/2 110/3/2
f 109/1/2 106/1/2 110/1/2
f 107/2/2 67/2/2 111/2/2
f 110/3/2 107/3/2 111/3/2
f 104/1/2 108/1/2 112/1/2
f 112/1/2 108/1/2 113/1/2
f 108/2/2 109/2/2 114/2/2
f 113/1/2 108/1/2 114/1/2
f 109/1/2 110/1/2 115/1/2
f 114/2/2 109/2/2 115/2/2
f 110/1/2 111/1/2 115/1/2
f 112/3/2 113/3/2 116/3/2
f 104/1/2 112/1/2 116/1/2
f 113/1/2 114/1/2 117/1/2
f 116/3/2 113/3/2 117/3/2
f 114/1/2 115/1/2 117/1/2
f 63/4/2 65/4/2 118/4/2
f 65/3/2 68/3/2 118/3/2
f 104/1/2 116/1/2 119/1/2
f 118/3/2 68/3/2 119/3/2
f 116/1/2 117/1/2 119/1/2
f 68/1/2 104/1/2 119/1/2
f 117/1/2 115/1/2 120/1/2
f 119/1/2 117/1/2 120/1/2
f 111/2/2 67/2/2 120/2/2
f 115/1/2 111/1/2 120/1/2
f 118/2/2 119/2/2 121/2/2
f 63/4/2 118/4/2 121/4/2
f 119/2/2 120/2/2 121/2/2
f 120/2/2 67/2/2 122/2/2
f 121/2/2 120/2/2 122/2/2
f 67/4/2 64/4/2 122/4/2
f 63/4/2 121/4/2 123/4/2
f 121/4/2 122/4/2 123/4/2
f 122/4/2 64/4/2 124/4/2
f 123/4/2 122/4/2 124/4/2
f 127/4/3 126/4/3 125/4/3
f 128/4/3 126/4/3 127/4/3
f 129/4/3 127/4/3 125/4/3
f 129/1/3 128/1/3 127/1/3
f 130/4/3 126/4/3 128/4/3
f 130/1/3 128/1/3 129/1/3
f 131/4/3 129/4/3 125/4/3
f 131/4/3 130/4/3 129/4/3
f 132/4/3 126/4/3 130/4/3
f 132/4/3 130/4/3 131/4/3
f 133/4/4 134/4/4 135/4/4
f 135/4/4 134/4/4 136/4/4
f 133/4/4 135/4/4 137/4/4
f 135/2/4 136/2/4 137/2/4
f 137/2/4 136/2/4 138/2/4
f 138/2/4 136/2/4 139/2/4
f 138/1/4 139/1/4 140/1/4
f 140/1/4 139/1/4 141/1/4
f 138/1/4 140/1/4 142/1/4
f 140/3/4 141/3/4 142/3/4
f 141/1/4 139/1/4 143/1/4
f 142/3/4 141/3/4 143/3/4
f 138/1/4 142/1/4 144/1/4
f 142/1/4 143/1/4 144/1/4
f 144/1/4 143/1/4 145/1/4
f 145/1/4 143/1/4 146/1/4
f 146/1/4 143/1/4 147/1/4
f 143/1/4 139/1/4 148/1/4
f 147/1/4 143/1/4 148/1/4
f 148/1/4 139/1/4 149/1/4
f 138/1/4 144/1/4 150/1/4
f 144/3/4 145/3/4 150/3/4
f 145/1/4 146/1/4 151/1/4
f 150/3/4 145/3/4 151/3/4
f 146/2/4 147/2/4 152/2/4
f 151/1/4 146/1/4 152/1/4
f 147/1/4 148/1/4 153/1/4
f 152/2/4 147/2/4 153/2/4
f 148/2/4 149/2/4 154/2/4
f 153/1/4 148/1/4 154/1/4
f 149/1/4 139/1/4 155/1/4
f 154/2/4 149/2/4 155/2/4
f 150/1/4 151/1/4 156/1/4
f 153/1/4 154/1/4 156/1/4
f 154/1/4 155/1/4 156/1/4
f 151/1/4 152/1/4 156/1/4
f 152/1/4 153/1/4 156/1/4
f 156/1/4 155/1/4 157/1/4
f 157/1/4 155/1/4 158/1/4
f 155/1/4 139/1/4 159/1/4
f 158/1/4 155/1/4 159/1/4
f 138/1/4 150/1/4 160/1/4
f 150/1/4 156/1/4 160/1/4
f 160/1/4 156/1/4 161/1/4
f 156/3/4 157/3/4 162/3/4
f 161/1/4 156/1/4 162/1/4
f 157/1/4 158/1/4 163/1/4
f 162/3/4 157/3/4 163/3/4
f 158/3/4 159/3/4 164/3/4
f 163/1/4 158/1/4 164/1/4
f 159/1/4 139/1/4 165/1/4
f 164/3/4 159/3/4 165/3/4
f 160/2/4 161/2/4 166/2/4
f 138/1/4 160/1/4 166/1/4
f 161/1/4 162/1/4 167/1/4
f 166/2/4 161/2/4 167/2/4
f 163/1/4 164/1/4 167/1/4
f 164/1/4 165/1/4 167/1/4
f 162/1/4 163/1/4 167/1/4
f 166/1/4 167/1/4 168/1/4
f 167/1/4 165/1/4 168/1/4
f 168/1/4 165/1/4 169/1/4
f 169/1/4 165/1/4 170/1/4
f 170/1/4 165/1/4 171/1/4
f 166/1/4 168/1/4 172/1/4
f 168/3/4 169/3/4 172/3/4
f 169/1/4 170/1/4 173/1/4
f 172/3/4 169/3/4 173/3/4
f 173/1/4 170/1/4 174/1/4
f 174/1/4 170/1/4 175/1/4
f 170/2/4 171/2/4 176/2/4
f 175/1/4 170/1/4 176/1/4
f 171/1/4 165/1/4 177/1/4
f 176/2/4 171/2/4 177/2/4
f 174/2/4 175/2/4 178/2/4
f 172/1/4 173/1/4 178/1/4
f 173/1/4 174/1/4 178/1/4
f 175/1/4 176/1/4 179/1/4
f 178/2/4 175/2/4 179/2/4
f 176/1/4 177/1/4 179/1/4
f 177/1/4 165/1/4 180/1/4
f 179/1/4 177/1/4 180/1/4
f 165/1/4 139/1/4 181/1/4
f 180/1/4 165/1/4 181/1/4
f 179/1/4 180/1/4 182/1/4
f 178/1/4 179/1/4 182/1/4
f 180/3/4 181/3/4 182/3/4
f 181/1/4 139/1/4 183/1/4
f 182/3/4 181/3/4 183/3/4
f 178/1/4 182/1/4 184/1/4
f 172/1/4 178/1/4 184/1/4
f 182/1/4 183/1/4 184/1/4
f 184/1/4 183/1/4 185/1/4
f 185/1/4 183/1/4 186/1/4
f 186/1/4 183/1/4 187/1/4
f 166/1/4 172/1/4 188/1/4
f 172/1/4 184/1/4 188/1/4
f 188/1/4 184/1/4 189/1/4
f 189/1/4 184/1/4 190/1/4
f 190/1/4 184/1/4 191/1/4
f 184/3/4 185/3/4 192/3/4
f 191/1/4 184/1/4 192/1/4
f 185/1/4 186/1/4 193/1/4
f 192/3/4 185/3/4 193/3/4
f 186/2/4 187/2/4 194/2/4
f 193/1/4 186/1/4 194/1/4
f 187/1/4 183/1/4 195/1/4
f 194/2/4 187/2/4 195/2/4
f 166/1/4 188/1/4 196/1/4
f 188/3/4 189/3/4 196/3/4
f 189/1/4 190/1/4 197/1/4
f 196/3/4 189/3/4 197/3/4
f 190/2/4 191/2/4 198/2/4
f 197/1/4 190/1/4 198/1/4
f 193/1/4 194/1/4 199/1/4
f 198/2/4 191/2/4 199/2/4
f 192/1/4 193/1/4 199/1/4
f 191/1/4 192/1/4 199/1/4
f 194/1/4 195/1/4 199/1/4
f 199/1/4 195/1/4 200/1/4
f 200/1/4 195/1/4 201/1/4
f 197/1/4 198/1/4 202/1/4
f 196/1/4 197/1/4 202/1/4
f 200/2/4 201/2/4 202/2/4
f 199/1/4 200/1/4 202/1/4
f 198/1/4 199/1/4 202/1/4
f 201/1/4 195/1/4 203/1/4
f 202/2/4 201/2/4 203/2/4
f 137/3/4 138/3/4 204/3/4
f 138/1/4 166/1/4 204/1/4
f 202/1/4 203/1/4 204/1/4
f 196/1/4 202/1/4 204/1/4
f 166/1/4 196/1/4 204/1/4
f 203/1/4 195/1/4 205/1/4
f 204/1/4 203/1/4 205/1/4
f 139/2/4 136/2/4 205/2/4
f 183/1/4 139/1/4 205/1/4
f 195/1/4 183/1/4 205/1/4
f 133/4/4 137/4/4 206/4/4
f 137/3/4 204/3/4 206/3/4
f 204/3/4 205/3/4 206/3/4
f 205/2/4 136/2/4 207/2/4
f 206/3/4 205/3/4 207/3/4
f 136/4/4 134/4/4 208/4/4
f 207/2/4 136/2/4 208/2/4
f 206/4/4 207/4/4 209/4/4
f 133/4/4 206/4/4 209/4/4
f 207/4/4 208/4/4 209/4/4
f 208/4/4 134/4/4 210/4/4
f 209/4/4 208/4/4 210/4/4
f 213/4/5 212/4/5 211/4/5
f 214/4/5 212/4/5 213/4/5
f 215/4/5 213/4/5 211/4/5
f 215/1/5 214/1/5 213/1/5
f 216/4/5 212/4/5 214/4/5
f 216/1/5 214/1/5 215/1/5
f 217/4/5 215/4/5 211/4/5
f 217/4/5 216/4/5 215/4/5
f 218/4/5 212/4/5 216/4/5
f 218/4/5 216/4/5 217/4/5
f 219/4/6 220/4/6 221/4/6
f 221/4/6 220/4/6 222/4/6
f 221/1/6 222/1/6 223/1/6
f 223/1/6 222/1/6 224/1/6
f 224/1/6 222/1/6 225/1/6
f 225/1/6 222/1/6 226/1/6
f 226/1/6 222/1/6 227/1/6
f 227/1/6 222/1/6 228/1/6
f 228/1/6 222/1/6 229/1/6
f 229/1/6 222/1/6 230/1/6
f 221/1/6 223/1/6 231/1/6
f 223/3/6 224/3/6 231/3/6
f 224/1/6 225/1/6 232/1/6
f 231/3/6 224/3/6 232/3/6
f 231/1/6 232/1/6 233/1/6
f 232/1/6 225/1/6 233/1/6
f 233/1/6 225/1/6 234/1/6
f 230/1/6 222/1/6 235/1/6
f 235/1/6 222/1/6 236/1/6
f 231/1/6 233/1/6 237/1/6
f 237/1/6 233/1/6 238/1/6
f 234/1/6 225/1/6 239/1/6
f 225/2/6 226/2/6 239/2/6
f 226/1/6 227/1/6 240/1/6
f 239/2/6 226/2/6 240/2/6
f 227/2/6 228/2/6 241/2/6
f 240/1/6 227/1/6 241/1/6
f 228/1/6 229/1/6 242/1/6
f 241/2/6 228/2/6 242/2/6
f 239/1/6 240/1/6 243/1/6
f 240/1/6 241/1/6 243/1/6
f 241/1/6 242/1/6 243/1/6
f 243/1/6 242/1/6 244/1/6
f 229/3/6 230/3/6 245/3/6
f 244/1/6 242/1/6 245/1/6
f 242/1/6 229/1/6 245/1/6
f 230/1/6 235/1/6 246/1/6
f 245/3/6 230/3/6 246/3/6
f 238/1/6 233/1/6 247/1/6
f 233/3/6 234/3/6 247/3/6
f 234/1/6 239/1/6 248/1/6
f 247/3/6 234/3/6 248/3/6
f 239/1/6 243/1/6 248/1/6
f 246/1/6 235/1/6 249/1/6
f 235/2/6 236/2/6 249/2/6
f 245/1/6 246/1/6 249/1/6
f 244/1/6 245/1/6 249/1/6
f 236/1/6 222/1/6 250/1/6
f 249/2/6 236/2/6 250/2/6
f 237/2/6 238/2/6 251/2/6
f 231/1/6 237/1/6 251/1/6
f 238/1/6 247/1/6 252/1/6
f 251/2/6 238/2/6 252/2/6
f 247/1/6 248/1/6 252/1/6
f 219/4/6 221/4/6 253/4/6
f 221/1/6 231/1/6 253/1/6
f 251/1/6 252/1/6 253/1/6
f 231/1/6 251/1/6 253/1/6
f 252/1/6 248/1/6 254/1/6
f 253/1/6 252/1/6 254/1/6
f 248/1/6 243/1/6 254/1/6
f 243/3/6 244/3/6 254/3/6
f 244/1/6 249/1/6 255/1/6
f 254/3/6 244/3/6 255/3/6
f 249/1/6 250/1/6 255/1/6
f 222/4/6 220/4/6 256/4/6
f 255/1/6 250/1/6 256/1/6
f 250/1/6 222/1/6 256/1/6
f 219/4/6 253/4/6 257/4/6
f 254/4/6 255/4/6 257/4/6
f 255/4/6 256/4/6 257/4/6
f 253/4/6 254/4/6 257/4/6
f 256/4/6 220/4/6 258/4/6
f 257/4/6 256/4/6 258/4/6
