# MagicaVoxel @ Ephtracy

# group
o 

# material
mtllib Cloud3.mtl
usemtl palette

# normals
vn -1 0 0
vn 1 0 0
vn 0 0 1
vn 0 0 -1
vn 0 -1 0
vn 0 1 0

# texcoords
vt 0.958984 0.5
vt 0.962891 0.5
vt 0.966797 0.5

# verts
v -0.7 0.2 -0.2
v -0.7 0.2 -0.3
v -0.7 0.5 -0.2
v -0.7 0.5 -0.3
v -0.6 0.1 -0.2
v -0.6 0.1 -0.3
v -0.6 0.2 -0.1
v -0.6 0.2 -0.2
v -0.6 0.2 -0.3
v -0.6 0.2 -0.4
v -0.6 0.5 -0.1
v -0.6 0.5 -0.2
v -0.6 0.5 -0.3
v -0.6 0.5 -0.4
v -0.6 0.7 -0.2
v -0.6 0.7 -0.3
v -0.5 0.5 -0.1
v -0.5 0.5 -0.2
v -0.5 0.5 -0.3
v -0.5 0.5 -0.4
v -0.5 0.7 -0.1
v -0.5 0.7 -0.2
v -0.5 0.7 -0.3
v -0.5 0.7 -0.4
v -0.5 0.8 -0.2
v -0.5 0.8 -0.3
v -0.3 0.7 -0.1
v -0.3 0.7 -0.2
v -0.3 0.7 -0.3
v -0.3 0.7 -0.4
v -0.3 0.8 -0.1
v -0.3 0.8 -0.2
v -0.3 0.8 -0.3
v -0.3 0.8 -0.4
v -0.3 0.9 -0.2
v -0.3 0.9 -0.3
v 0.2 0.7 -0.1
v 0.2 0.7 -0.2
v 0.2 0.7 -0.3
v 0.2 0.7 -0.4
v 0.2 0.8 -0.1
v 0.2 0.8 -0.2
v 0.2 0.8 -0.3
v 0.2 0.8 -0.4
v 0.2 0.9 -0.2
v 0.2 0.9 -0.3
v 0.4 0.6 -0.1
v 0.4 0.6 -0.2
v 0.4 0.6 -0.3
v 0.4 0.6 -0.4
v 0.4 0.7 -0.1
v 0.4 0.7 -0.2
v 0.4 0.7 -0.3
v 0.4 0.7 -0.4
v 0.4 0.8 -0.2
v 0.4 0.8 -0.3
v 0.5 0.1 -0.2
v 0.5 0.1 -0.3
v 0.5 0.2 -0.1
v 0.5 0.2 -0.2
v 0.5 0.2 -0.3
v 0.5 0.2 -0.4
v 0.5 0.5 -0.1
v 0.5 0.5 -0.2
v 0.5 0.6 -0.1
v 0.5 0.6 -0.2
v 0.5 0.6 -0.3
v 0.5 0.6 -0.4
v 0.5 0.7 -0.2
v 0.5 0.7 -0.3
v 0.6 0.2 -0.2
v 0.6 0.2 -0.3
v 0.6 0.6 -0.2
v 0.6 0.6 -0.3
v -0.6 0.2 -0.1
v -0.6 0.5 -0.1
v -0.5 0.5 -0.1
v -0.5 0.7 -0.1
v -0.3 0.7 -0.1
v -0.3 0.8 -0.1
v 0 0.7 -0.1
v 0 0.8 -0.1
v 0.2 0.6 -0.1
v 0.2 0.7 -0.1
v 0.2 0.8 -0.1
v 0.4 0.5 -0.1
v 0.4 0.6 -0.1
v 0.4 0.7 -0.1
v 0.5 0.2 -0.1
v 0.5 0.5 -0.1
v 0.5 0.6 -0.1
v -0.7 0.2 -0.2
v -0.7 0.5 -0.2
v -0.6 0.1 -0.2
v -0.6 0.2 -0.2
v -0.6 0.5 -0.2
v -0.6 0.7 -0.2
v -0.5 0.5 -0.2
v -0.5 0.7 -0.2
v -0.5 0.8 -0.2
v -0.3 0.7 -0.2
v -0.3 0.8 -0.2
v -0.3 0.9 -0.2
v 0 0.8 -0.2
v 0.2 0.7 -0.2
v 0.2 0.8 -0.2
v 0.2 0.9 -0.2
v 0.4 0.6 -0.2
v 0.4 0.7 -0.2
v 0.4 0.8 -0.2
v 0.5 0.1 -0.2
v 0.5 0.2 -0.2
v 0.5 0.5 -0.2
v 0.5 0.6 -0.2
v 0.5 0.7 -0.2
v 0.6 0.2 -0.2
v 0.6 0.6 -0.2
v -0.7 0.2 -0.3
v -0.7 0.5 -0.3
v -0.6 0.1 -0.3
v -0.6 0.2 -0.3
v -0.6 0.5 -0.3
v -0.6 0.7 -0.3
v -0.5 0.5 -0.3
v -0.5 0.7 -0.3
v -0.5 0.8 -0.3
v -0.3 0.7 -0.3
v -0.3 0.8 -0.3
v -0.3 0.9 -0.3
v 0.2 0.7 -0.3
v 0.2 0.8 -0.3
v 0.2 0.9 -0.3
v 0.4 0.6 -0.3
v 0.4 0.7 -0.3
v 0.4 0.8 -0.3
v 0.5 0.1 -0.3
v 0.5 0.2 -0.3
v 0.5 0.6 -0.3
v 0.5 0.7 -0.3
v 0.6 0.2 -0.3
v 0.6 0.6 -0.3
v -0.6 0.2 -0.4
v -0.6 0.5 -0.4
v -0.5 0.5 -0.4
v -0.5 0.7 -0.4
v -0.3 0.7 -0.4
v -0.3 0.8 -0.4
v 0.2 0.7 -0.4
v 0.2 0.8 -0.4
v 0.4 0.6 -0.4
v 0.4 0.7 -0.4
v 0.5 0.2 -0.4
v 0.5 0.6 -0.4
v -0.6 0.1 -0.2
v 0.5 0.1 -0.2
v -0.6 0.1 -0.3
v 0.5 0.1 -0.3
v -0.6 0.2 -0.1
v 0.5 0.2 -0.1
v -0.7 0.2 -0.2
v -0.6 0.2 -0.2
v 0.5 0.2 -0.2
v 0.6 0.2 -0.2
v -0.7 0.2 -0.3
v -0.6 0.2 -0.3
v 0.5 0.2 -0.3
v 0.6 0.2 -0.3
v -0.6 0.2 -0.4
v 0.5 0.2 -0.4
v -0.6 0.5 -0.1
v -0.5 0.5 -0.1
v -0.7 0.5 -0.2
v -0.6 0.5 -0.2
v -0.5 0.5 -0.2
v -0.7 0.5 -0.3
v -0.6 0.5 -0.3
v -0.5 0.5 -0.3
v -0.6 0.5 -0.4
v -0.5 0.5 -0.4
v 0.4 0.6 -0.1
v 0.5 0.6 -0.1
v 0.4 0.6 -0.2
v 0.5 0.6 -0.2
v 0.6 0.6 -0.2
v 0.4 0.6 -0.3
v 0.5 0.6 -0.3
v 0.6 0.6 -0.3
v 0.4 0.6 -0.4
v 0.5 0.6 -0.4
v -0.5 0.7 -0.1
v -0.3 0.7 -0.1
v 0.2 0.7 -0.1
v 0.4 0.7 -0.1
v -0.6 0.7 -0.2
v -0.5 0.7 -0.2
v -0.3 0.7 -0.2
v 0.2 0.7 -0.2
v 0.4 0.7 -0.2
v 0.5 0.7 -0.2
v -0.6 0.7 -0.3
v -0.5 0.7 -0.3
v -0.3 0.7 -0.3
v 0.2 0.7 -0.3
v 0.4 0.7 -0.3
v 0.5 0.7 -0.3
v -0.5 0.7 -0.4
v -0.3 0.7 -0.4
v 0.2 0.7 -0.4
v 0.4 0.7 -0.4
v -0.3 0.8 -0.1
v 0 0.8 -0.1
v 0.2 0.8 -0.1
v -0.5 0.8 -0.2
v -0.3 0.8 -0.2
v 0 0.8 -0.2
v 0.2 0.8 -0.2
v 0.4 0.8 -0.2
v -0.5 0.8 -0.3
v -0.3 0.8 -0.3
v 0.2 0.8 -0.3
v 0.4 0.8 -0.3
v -0.3 0.8 -0.4
v 0.2 0.8 -0.4
v -0.3 0.9 -0.2
v 0.2 0.9 -0.2
v -0.3 0.9 -0.3
v 0.2 0.9 -0.3

# faces
f 3/3/1 2/3/1 1/3/1
f 4/3/1 2/3/1 3/3/1
f 8/3/1 6/3/1 5/3/1
f 9/3/1 6/3/1 8/3/1
f 11/2/1 8/2/1 7/2/1
f 12/2/1 8/2/1 11/2/1
f 13/2/1 10/2/1 9/2/1
f 14/2/1 10/2/1 13/2/1
f 15/3/1 13/3/1 12/3/1
f 16/3/1 13/3/1 15/3/1
f 21/2/1 18/2/1 17/2/1
f 22/2/1 18/2/1 21/2/1
f 23/2/1 20/2/1 19/2/1
f 24/2/1 20/2/1 23/2/1
f 25/3/1 23/3/1 22/3/1
f 26/3/1 23/3/1 25/3/1
f 31/2/1 28/2/1 27/2/1
f 32/2/1 28/2/1 31/2/1
f 33/2/1 30/2/1 29/2/1
f 34/2/1 30/2/1 33/2/1
f 35/3/1 33/3/1 32/3/1
f 36/3/1 33/3/1 35/3/1
f 37/1/2 38/1/2 41/1/2
f 41/1/2 38/1/2 42/1/2
f 39/2/2 40/2/2 43/2/2
f 43/2/2 40/2/2 44/2/2
f 42/3/2 43/3/2 45/3/2
f 45/3/2 43/3/2 46/3/2
f 47/1/2 48/1/2 51/1/2
f 51/1/2 48/1/2 52/1/2
f 49/2/2 50/2/2 53/2/2
f 53/2/2 50/2/2 54/2/2
f 52/3/2 53/3/2 55/3/2
f 55/3/2 53/3/2 56/3/2
f 57/3/2 58/3/2 60/3/2
f 60/3/2 58/3/2 61/3/2
f 59/2/2 60/2/2 63/2/2
f 63/2/2 60/2/2 64/2/2
f 63/1/2 64/1/2 65/1/2
f 65/1/2 64/1/2 66/1/2
f 61/2/2 62/2/2 67/2/2
f 67/2/2 62/2/2 68/2/2
f 66/3/2 67/3/2 69/3/2
f 69/3/2 67/3/2 70/3/2
f 71/3/2 72/3/2 73/3/2
f 73/3/2 72/3/2 74/3/2
f 77/2/3 76/2/3 75/2/3
f 79/2/3 78/2/3 77/2/3
f 81/2/3 79/2/3 77/2/3
f 81/2/3 80/2/3 79/2/3
f 82/2/3 80/2/3 81/2/3
f 83/2/3 81/2/3 77/2/3
f 84/1/3 82/1/3 81/1/3
f 84/2/3 81/2/3 83/2/3
f 85/1/3 82/1/3 84/1/3
f 86/2/3 77/2/3 75/2/3
f 86/2/3 83/2/3 77/2/3
f 87/1/3 84/1/3 83/1/3
f 87/2/3 83/2/3 86/2/3
f 88/1/3 84/1/3 87/1/3
f 89/2/3 86/2/3 75/2/3
f 90/1/3 87/1/3 86/1/3
f 90/2/3 86/2/3 89/2/3
f 91/1/3 87/1/3 90/1/3
f 95/3/3 93/3/3 92/3/3
f 96/3/3 93/3/3 95/3/3
f 98/3/3 97/3/3 96/3/3
f 99/3/3 97/3/3 98/3/3
f 101/3/3 100/3/3 99/3/3
f 102/3/3 100/3/3 101/3/3
f 104/3/3 103/3/3 102/3/3
f 106/3/3 103/3/3 104/3/3
f 107/3/3 103/3/3 106/3/3
f 109/3/3 106/3/3 105/3/3
f 110/3/3 106/3/3 109/3/3
f 111/3/3 95/3/3 94/3/3
f 112/3/3 95/3/3 111/3/3
f 114/3/3 109/3/3 108/3/3
f 115/3/3 109/3/3 114/3/3
f 116/3/3 113/3/3 112/3/3
f 116/3/3 114/3/3 113/3/3
f 117/3/3 114/3/3 116/3/3
f 118/3/4 119/3/4 121/3/4
f 121/3/4 119/3/4 122/3/4
f 122/3/4 123/3/4 124/3/4
f 124/3/4 123/3/4 125/3/4
f 125/3/4 126/3/4 127/3/4
f 127/3/4 126/3/4 128/3/4
f 128/3/4 129/3/4 131/3/4
f 131/3/4 129/3/4 132/3/4
f 130/3/4 131/3/4 134/3/4
f 134/3/4 131/3/4 135/3/4
f 120/3/4 121/3/4 136/3/4
f 136/3/4 121/3/4 137/3/4
f 133/3/4 134/3/4 138/3/4
f 138/3/4 134/3/4 139/3/4
f 137/3/4 138/3/4 140/3/4
f 140/3/4 138/3/4 141/3/4
f 142/2/4 143/2/4 144/2/4
f 144/2/4 145/2/4 146/2/4
f 144/2/4 146/2/4 148/2/4
f 146/2/4 147/2/4 148/2/4
f 148/2/4 147/2/4 149/2/4
f 144/2/4 148/2/4 150/2/4
f 150/2/4 148/2/4 151/2/4
f 142/2/4 144/2/4 152/2/4
f 144/2/4 150/2/4 152/2/4
f 152/2/4 150/2/4 153/2/4
f 156/3/5 155/3/5 154/3/5
f 157/3/5 155/3/5 156/3/5
f 161/2/5 159/2/5 158/2/5
f 162/2/5 159/2/5 161/2/5
f 164/3/5 161/3/5 160/3/5
f 165/3/5 161/3/5 164/3/5
f 166/3/5 163/3/5 162/3/5
f 167/3/5 163/3/5 166/3/5
f 168/2/5 166/2/5 165/2/5
f 169/2/5 166/2/5 168/2/5
f 170/2/6 171/2/6 173/2/6
f 173/2/6 171/2/6 174/2/6
f 172/3/6 173/3/6 175/3/6
f 175/3/6 173/3/6 176/3/6
f 176/2/6 177/2/6 178/2/6
f 178/2/6 177/2/6 179/2/6
f 180/1/6 181/1/6 182/1/6
f 182/1/6 181/1/6 183/1/6
f 183/3/6 184/3/6 186/3/6
f 186/3/6 184/3/6 187/3/6
f 185/2/6 186/2/6 188/2/6
f 188/2/6 186/2/6 189/2/6
f 190/2/6 191/2/6 195/2/6
f 195/2/6 191/2/6 196/2/6
f 192/1/6 193/1/6 197/1/6
f 197/1/6 193/1/6 198/1/6
f 194/3/6 195/3/6 200/3/6
f 200/3/6 195/3/6 201/3/6
f 198/3/6 199/3/6 204/3/6
f 204/3/6 199/3/6 205/3/6
f 201/2/6 202/2/6 206/2/6
f 206/2/6 202/2/6 207/2/6
f 203/2/6 204/2/6 208/2/6
f 208/2/6 204/2/6 209/2/6
f 210/2/6 211/2/6 214/2/6
f 211/1/6 212/1/6 215/1/6
f 214/2/6 211/2/6 215/2/6
f 215/1/6 212/1/6 216/1/6
f 213/3/6 214/3/6 218/3/6
f 218/3/6 214/3/6 219/3/6
f 216/3/6 217/3/6 220/3/6
f 220/3/6 217/3/6 221/3/6
f 219/2/6 220/2/6 222/2/6
f 222/2/6 220/2/6 223/2/6
f 224/3/6 225/3/6 226/3/6
f 226/3/6 225/3/6 227/3/6
