# MagicaVoxel @ Ephtracy

# group
o 

# material
mtllib Cloud6.mtl
usemtl palette

# normals
vn -1 0 0
vn 1 0 0
vn 0 0 1
vn 0 0 -1
vn 0 -1 0
vn 0 1 0

# texcoords
vt 0.00195312 0.5
vt 0.00585938 0.5
vt 0.0136719 0.5
vt 0.0175781 0.5
vt 0.0292969 0.5
vt 0.0371094 0.5
vt 0.0488281 0.5
vt 0.0527344 0.5
vt 0.0644531 0.5
vt 0.0683594 0.5
vt 0.0722656 0.5
vt 0.0839844 0.5
vt 0.0878906 0.5
vt 0.0917969 0.5
vt 0.103516 0.5
vt 0.107422 0.5
vt 0.111328 0.5
vt 0.119141 0.5
vt 0.123047 0.5
vt 0.126953 0.5
vt 0.146484 0.5
vt 0.158203 0.5
vt 0.166016 0.5
vt 0.169922 0.5
vt 0.181641 0.5
vt 0.185547 0.5
vt 0.189453 0.5
vt 0.193359 0.5
vt 0.201172 0.5
vt 0.208984 0.5
vt 0.232422 0.5
vt 0.244141 0.5
vt 0.283203 0.5
vt 0.302734 0.5
vt 0.314453 0.5
vt 0.322266 0.5
vt 0.326172 0.5
vt 0.330078 0.5
vt 0.341797 0.5
vt 0.353516 0.5
vt 0.357422 0.5
vt 0.361328 0.5
vt 0.365234 0.5
vt 0.373047 0.5
vt 0.388672 0.5
vt 0.396484 0.5
vt 0.404297 0.5
vt 0.412109 0.5
vt 0.419922 0.5
vt 0.423828 0.5
vt 0.443359 0.5
vt 0.447266 0.5
vt 0.466797 0.5
vt 0.474609 0.5
vt 0.478516 0.5
vt 0.490234 0.5
vt 0.498047 0.5
vt 0.505859 0.5
vt 0.509766 0.5
vt 0.513672 0.5
vt 0.525391 0.5
vt 0.533203 0.5
vt 0.541016 0.5
vt 0.544922 0.5
vt 0.548828 0.5
vt 0.556641 0.5
vt 0.564453 0.5
vt 0.572266 0.5
vt 0.591797 0.5
vt 0.595703 0.5
vt 0.615234 0.5
vt 0.619141 0.5
vt 0.646484 0.5
vt 0.658203 0.5
vt 0.669922 0.5
vt 0.673828 0.5
vt 0.681641 0.5
vt 0.705078 0.5
vt 0.708984 0.5
vt 0.712891 0.5
vt 0.716797 0.5
vt 0.724609 0.5
vt 0.732422 0.5
vt 0.740234 0.5
vt 0.744141 0.5
vt 0.767578 0.5
vt 0.771484 0.5
vt 0.783203 0.5
vt 0.802734 0.5
vt 0.833984 0.5
vt 0.845703 0.5
vt 0.849609 0.5
vt 0.884766 0.5
vt 0.888672 0.5
vt 0.896484 0.5
vt 0.900391 0.5
vt 0.904297 0.5
vt 0.908203 0.5
vt 0.912109 0.5
vt 0.916016 0.5
vt 0.919922 0.5
vt 0.923828 0.5
vt 0.927734 0.5
vt 0.939453 0.5
vt 0.943359 0.5
vt 0.951172 0.5
vt 0.958984 0.5
vt 0.962891 0.5
vt 0.966797 0.5
vt 0.986328 0.5

# verts
v -0.7 0.9 0
v -0.7 0.9 -0.2
v -0.7 1.1 0
v -0.7 1.1 -0.2
v -0.6 0.7 0
v -0.6 0.7 -0.2
v -0.6 0.9 0.1
v -0.6 0.9 0
v -0.6 0.9 -0.2
v -0.6 0.9 -0.3
v -0.6 1.1 0
v -0.6 1.1 -0.2
v -0.6 1.1 -0.3
v -0.6 1.2 0.1
v -0.6 1.2 0
v -0.6 1.3 0
v -0.6 1.3 -0.2
v -0.5 0.6 0
v -0.5 0.6 -0.2
v -0.5 0.7 0
v -0.5 0.7 -0.2
v -0.5 0.7 -0.3
v -0.5 0.8 0.1
v -0.5 0.8 0
v -0.5 0.9 0.2
v -0.5 0.9 0.1
v -0.5 0.9 0
v -0.5 0.9 -0.2
v -0.5 0.9 -0.3
v -0.5 1.1 -0.2
v -0.5 1.1 -0.3
v -0.5 1.2 0.2
v -0.5 1.2 0.1
v -0.5 1.2 0
v -0.5 1.3 0.1
v -0.5 1.3 0
v -0.5 1.3 -0.2
v -0.5 1.3 -0.3
v -0.5 1.4 0
v -0.5 1.4 -0.2
v -0.4 0.7 0.1
v -0.4 0.7 0
v -0.4 0.8 0.2
v -0.4 0.8 0.1
v -0.4 0.8 0
v -0.4 0.9 0.2
v -0.4 0.9 0.1
v -0.4 1.2 0.2
v -0.4 1.2 0.1
v -0.4 1.3 0.2
v -0.4 1.3 0.1
v -0.4 1.3 0
v -0.4 1.4 0.1
v -0.4 1.4 0
v -0.3 0.5 0
v -0.3 0.5 -0.2
v -0.3 0.6 0.1
v -0.3 0.6 0
v -0.3 0.6 -0.2
v -0.3 0.6 -0.3
v -0.3 0.7 0.2
v -0.3 0.7 0.1
v -0.3 0.7 0
v -0.3 0.7 -0.2
v -0.3 0.7 -0.3
v -0.3 0.8 0.2
v -0.3 0.8 0.1
v -0.3 1.3 -0.2
v -0.3 1.3 -0.3
v -0.3 1.4 0
v -0.3 1.4 -0.2
v -0.3 1.4 -0.3
v -0.3 1.5 0
v -0.3 1.5 -0.2
v 0.2 0.5 0
v 0.2 0.5 -0.2
v 0.2 0.6 0.1
v 0.2 0.6 0
v 0.2 0.6 -0.2
v 0.2 0.6 -0.3
v 0.2 0.7 0.2
v 0.2 0.7 0.1
v 0.2 0.7 0
v 0.2 0.7 -0.2
v 0.2 0.7 -0.3
v 0.2 0.8 0.2
v 0.2 0.8 0.1
v 0.2 1.3 -0.2
v 0.2 1.3 -0.3
v 0.2 1.4 0
v 0.2 1.4 -0.2
v 0.2 1.4 -0.3
v 0.2 1.5 0
v 0.2 1.5 -0.2
v 0.3 1.2 0.2
v 0.3 1.2 0.1
v 0.3 1.3 0.2
v 0.3 1.3 0.1
v 0.3 1.3 0
v 0.3 1.4 0.1
v 0.3 1.4 0
v 0.4 0.6 0
v 0.4 0.6 -0.2
v 0.4 0.7 0.1
v 0.4 0.7 0
v 0.4 0.7 -0.2
v 0.4 0.7 -0.3
v 0.4 0.8 0.2
v 0.4 0.8 0.1
v 0.4 0.8 0
v 0.4 0.8 -0.2
v 0.4 0.8 -0.3
v 0.4 1.2 0.2
v 0.4 1.2 0.1
v 0.4 1.2 0
v 0.4 1.2 -0.2
v 0.4 1.2 -0.3
v 0.4 1.3 0.1
v 0.4 1.3 0
v 0.4 1.3 -0.2
v 0.4 1.3 -0.3
v 0.4 1.4 0
v 0.4 1.4 -0.2
v 0.5 0.7 0
v 0.5 0.7 -0.2
v 0.5 0.8 0.1
v 0.5 0.8 0
v 0.5 0.8 -0.2
v 0.5 0.8 -0.3
v 0.5 1.2 0.1
v 0.5 1.2 0
v 0.5 1.2 -0.2
v 0.5 1.2 -0.3
v 0.5 1.3 0
v 0.5 1.3 -0.2
v 0.6 0.8 0
v 0.6 0.8 -0.2
v 0.6 1.2 0
v 0.6 1.2 -0.2
v -0.5 0.9 0.2
v -0.5 1.2 0.2
v -0.4 0.8 0.2
v -0.4 0.9 0.2
v -0.4 1.2 0.2
v -0.4 1.3 0.2
v -0.3 0.7 0.2
v -0.3 0.8 0.2
v 0.2 0.7 0.2
v 0.2 0.8 0.2
v 0.3 1.2 0.2
v 0.3 1.3 0.2
v 0.4 0.8 0.2
v 0.4 1.2 0.2
v -0.6 0.9 0.1
v -0.6 1.2 0.1
v -0.5 0.8 0.1
v -0.5 0.9 0.1
v -0.5 1.2 0.1
v -0.5 1.3 0.1
v -0.4 0.7 0.1
v -0.4 0.8 0.1
v -0.4 0.9 0.1
v -0.4 1.2 0.1
v -0.4 1.3 0.1
v -0.4 1.4 0.1
v -0.3 0.6 0.1
v -0.3 0.7 0.1
v -0.3 0.8 0.1
v 0.2 0.6 0.1
v 0.2 0.7 0.1
v 0.2 0.8 0.1
v 0.3 1.2 0.1
v 0.3 1.3 0.1
v 0.3 1.4 0.1
v 0.4 0.7 0.1
v 0.4 0.8 0.1
v 0.4 1.2 0.1
v 0.4 1.3 0.1
v 0.5 0.8 0.1
v 0.5 1.2 0.1
v -0.7 0.9 0
v -0.7 1.1 0
v -0.6 0.7 0
v -0.6 0.9 0
v -0.6 1.1 0
v -0.6 1.2 0
v -0.6 1.3 0
v -0.5 0.6 0
v -0.5 0.7 0
v -0.5 0.8 0
v -0.5 0.9 0
v -0.5 1.2 0
v -0.5 1.3 0
v -0.5 1.4 0
v -0.4 0.7 0
v -0.4 0.8 0
v -0.4 1.3 0
v -0.4 1.4 0
v -0.3 0.5 0
v -0.3 0.6 0
v -0.3 0.7 0
v -0.3 1.4 0
v -0.3 1.5 0
v 0.2 0.5 0
v 0.2 0.6 0
v 0.2 0.7 0
v 0.2 1.4 0
v 0.2 1.5 0
v 0.3 1.3 0
v 0.3 1.4 0
v 0.4 0.6 0
v 0.4 0.7 0
v 0.4 0.8 0
v 0.4 1.2 0
v 0.4 1.3 0
v 0.4 1.4 0
v 0.5 0.7 0
v 0.5 0.8 0
v 0.5 1.2 0
v 0.5 1.3 0
v 0.6 0.8 0
v 0.6 1.2 0
v -0.7 0.9 -0.2
v -0.7 1.1 -0.2
v -0.6 0.7 -0.2
v -0.6 0.9 -0.2
v -0.6 1.1 -0.2
v -0.6 1.3 -0.2
v -0.5 0.6 -0.2
v -0.5 0.7 -0.2
v -0.5 0.9 -0.2
v -0.5 1.1 -0.2
v -0.5 1.3 -0.2
v -0.5 1.4 -0.2
v -0.3 0.5 -0.2
v -0.3 0.6 -0.2
v -0.3 0.7 -0.2
v -0.3 1.3 -0.2
v -0.3 1.4 -0.2
v -0.3 1.5 -0.2
v 0.2 0.5 -0.2
v 0.2 0.6 -0.2
v 0.2 0.7 -0.2
v 0.2 1.3 -0.2
v 0.2 1.4 -0.2
v 0.2 1.5 -0.2
v 0.4 0.6 -0.2
v 0.4 0.7 -0.2
v 0.4 0.8 -0.2
v 0.4 1.2 -0.2
v 0.4 1.3 -0.2
v 0.4 1.4 -0.2
v 0.5 0.7 -0.2
v 0.5 0.8 -0.2
v 0.5 1.2 -0.2
v 0.5 1.3 -0.2
v 0.6 0.8 -0.2
v 0.6 1.2 -0.2
v -0.6 0.9 -0.3
v -0.6 1.1 -0.3
v -0.5 0.7 -0.3
v -0.5 0.9 -0.3
v -0.5 1.1 -0.3
v -0.5 1.3 -0.3
v -0.3 0.6 -0.3
v -0.3 0.7 -0.3
v -0.3 1.3 -0.3
v -0.3 1.4 -0.3
v 0.2 0.6 -0.3
v 0.2 0.7 -0.3
v 0.2 1.3 -0.3
v 0.2 1.4 -0.3
v 0.4 0.7 -0.3
v 0.4 0.8 -0.3
v 0.4 1.2 -0.3
v 0.4 1.3 -0.3
v 0.5 0.8 -0.3
v 0.5 1.2 -0.3
v -0.3 0.5 0
v 0.2 0.5 0
v -0.3 0.5 -0.2
v 0.2 0.5 -0.2
v -0.3 0.6 0.1
v 0.2 0.6 0.1
v -0.5 0.6 0
v -0.3 0.6 0
v 0.2 0.6 0
v 0.4 0.6 0
v -0.5 0.6 -0.2
v -0.3 0.6 -0.2
v 0.2 0.6 -0.2
v 0.4 0.6 -0.2
v -0.3 0.6 -0.3
v 0.2 0.6 -0.3
v -0.3 0.7 0.2
v 0.2 0.7 0.2
v -0.4 0.7 0.1
v -0.3 0.7 0.1
v 0.2 0.7 0.1
v 0.4 0.7 0.1
v -0.6 0.7 0
v -0.5 0.7 0
v -0.4 0.7 0
v -0.3 0.7 0
v 0.2 0.7 0
v 0.4 0.7 0
v 0.5 0.7 0
v -0.6 0.7 -0.2
v -0.5 0.7 -0.2
v -0.3 0.7 -0.2
v 0.2 0.7 -0.2
v 0.4 0.7 -0.2
v 0.5 0.7 -0.2
v -0.5 0.7 -0.3
v -0.3 0.7 -0.3
v 0.2 0.7 -0.3
v 0.4 0.7 -0.3
v -0.4 0.8 0.2
v -0.3 0.8 0.2
v 0.2 0.8 0.2
v 0.4 0.8 0.2
v -0.5 0.8 0.1
v -0.4 0.8 0.1
v -0.3 0.8 0.1
v 0.2 0.8 0.1
v 0.4 0.8 0.1
v 0.5 0.8 0.1
v -0.5 0.8 0
v -0.4 0.8 0
v 0.4 0.8 0
v 0.5 0.8 0
v 0.6 0.8 0
v 0.4 0.8 -0.2
v 0.5 0.8 -0.2
v 0.6 0.8 -0.2
v 0.4 0.8 -0.3
v 0.5 0.8 -0.3
v -0.5 0.9 0.2
v -0.4 0.9 0.2
v -0.6 0.9 0.1
v -0.5 0.9 0.1
v -0.4 0.9 0.1
v -0.7 0.9 0
v -0.6 0.9 0
v -0.5 0.9 0
v -0.7 0.9 -0.2
v -0.6 0.9 -0.2
v -0.5 0.9 -0.2
v -0.6 0.9 -0.3
v -0.5 0.9 -0.3
v -0.7 1.1 0
v -0.6 1.1 0
v -0.7 1.1 -0.2
v -0.6 1.1 -0.2
v -0.5 1.1 -0.2
v -0.6 1.1 -0.3
v -0.5 1.1 -0.3
v -0.5 1.2 0.2
v -0.4 1.2 0.2
v 0.3 1.2 0.2
v 0.4 1.2 0.2
v -0.6 1.2 0.1
v -0.5 1.2 0.1
v -0.4 1.2 0.1
v 0.3 1.2 0.1
v 0.4 1.2 0.1
v 0.5 1.2 0.1
v -0.6 1.2 0
v -0.5 1.2 0
v 0.4 1.2 0
v 0.5 1.2 0
v 0.6 1.2 0
v 0.4 1.2 -0.2
v 0.5 1.2 -0.2
v 0.6 1.2 -0.2
v 0.4 1.2 -0.3
v 0.5 1.2 -0.3
v -0.4 1.3 0.2
v 0.3 1.3 0.2
v -0.5 1.3 0.1
v -0.4 1.3 0.1
v 0.3 1.3 0.1
v 0.4 1.3 0.1
v -0.6 1.3 0
v -0.5 1.3 0
v -0.4 1.3 0
v 0.3 1.3 0
v 0.4 1.3 0
v 0.5 1.3 0
v -0.6 1.3 -0.2
v -0.5 1.3 -0.2
v -0.3 1.3 -0.2
v 0.2 1.3 -0.2
v 0.4 1.3 -0.2
v 0.5 1.3 -0.2
v -0.5 1.3 -0.3
v -0.3 1.3 -0.3
v 0.2 1.3 -0.3
v 0.4 1.3 -0.3
v -0.4 1.4 0.1
v 0.3 1.4 0.1
v -0.5 1.4 0
v -0.4 1.4 0
v -0.3 1.4 0
v 0.2 1.4 0
v 0.3 1.4 0
v 0.4 1.4 0
v -0.5 1.4 -0.2
v -0.3 1.4 -0.2
v 0.2 1.4 -0.2
v 0.4 1.4 -0.2
v -0.3 1.4 -0.3
v 0.2 1.4 -0.3
v -0.3 1.5 0
v 0.2 1.5 0
v -0.3 1.5 -0.2
v 0.2 1.5 -0.2

# faces
f 3/99/1 2/99/1 1/99/1
f 4/99/1 2/99/1 3/99/1
f 8/99/1 6/99/1 5/99/1
f 9/99/1 6/99/1 8/99/1
f 11/98/1 8/98/1 7/98/1
f 12/99/1 10/99/1 9/99/1
f 13/99/1 10/99/1 12/99/1
f 14/98/1 11/98/1 7/98/1
f 15/99/1 12/99/1 11/99/1
f 15/98/1 11/98/1 14/98/1
f 16/99/1 12/99/1 15/99/1
f 17/99/1 12/99/1 16/99/1
f 20/99/1 19/99/1 18/99/1
f 21/99/1 19/99/1 20/99/1
f 26/98/1 24/98/1 23/98/1
f 27/98/1 24/98/1 26/98/1
f 28/99/1 22/99/1 21/99/1
f 29/99/1 22/99/1 28/99/1
f 32/92/1 26/92/1 25/92/1
f 33/92/1 26/92/1 32/92/1
f 35/92/1 34/92/1 33/92/1
f 36/92/1 34/92/1 35/92/1
f 37/99/1 31/99/1 30/99/1
f 38/99/1 31/99/1 37/99/1
f 39/99/1 37/99/1 36/99/1
f 40/99/1 37/99/1 39/99/1
f 44/98/1 42/98/1 41/98/1
f 45/98/1 42/98/1 44/98/1
f 46/92/1 44/92/1 43/92/1
f 47/92/1 44/92/1 46/92/1
f 50/92/1 49/92/1 48/92/1
f 51/92/1 49/92/1 50/92/1
f 53/98/1 52/98/1 51/98/1
f 54/98/1 52/98/1 53/98/1
f 58/99/1 56/99/1 55/99/1
f 59/99/1 56/99/1 58/99/1
f 62/98/1 58/98/1 57/98/1
f 63/98/1 58/98/1 62/98/1
f 64/99/1 60/99/1 59/99/1
f 65/99/1 60/99/1 64/99/1
f 66/92/1 62/92/1 61/92/1
f 67/92/1 62/92/1 66/92/1
f 71/99/1 69/99/1 68/99/1
f 72/99/1 69/99/1 71/99/1
f 73/99/1 71/99/1 70/99/1
f 74/99/1 71/99/1 73/99/1
f 75/99/2 76/99/2 78/99/2
f 78/99/2 76/99/2 79/99/2
f 77/98/2 78/98/2 82/98/2
f 82/98/2 78/98/2 83/98/2
f 79/99/2 80/99/2 84/99/2
f 84/99/2 80/99/2 85/99/2
f 81/92/2 82/92/2 86/92/2
f 86/92/2 82/92/2 87/92/2
f 88/99/2 89/99/2 91/99/2
f 91/99/2 89/99/2 92/99/2
f 90/99/2 91/99/2 93/99/2
f 93/99/2 91/99/2 94/99/2
f 95/92/2 96/92/2 97/92/2
f 97/92/2 96/92/2 98/92/2
f 98/98/2 99/98/2 100/98/2
f 100/98/2 99/98/2 101/98/2
f 102/99/2 103/99/2 105/99/2
f 105/99/2 103/99/2 106/99/2
f 104/98/2 105/98/2 109/98/2
f 109/98/2 105/98/2 110/98/2
f 106/99/2 107/99/2 111/99/2
f 111/99/2 107/99/2 112/99/2
f 108/92/2 109/92/2 113/92/2
f 113/92/2 109/92/2 114/92/2
f 114/98/2 115/98/2 118/98/2
f 118/98/2 115/98/2 119/98/2
f 116/99/2 117/99/2 120/99/2
f 120/99/2 117/99/2 121/99/2
f 119/99/2 120/99/2 122/99/2
f 122/99/2 120/99/2 123/99/2
f 124/99/2 125/99/2 127/99/2
f 127/99/2 125/99/2 128/99/2
f 126/98/2 127/98/2 130/98/2
f 130/98/2 127/98/2 131/98/2
f 128/99/2 129/99/2 132/99/2
f 132/99/2 129/99/2 133/99/2
f 131/99/2 132/99/2 134/99/2
f 134/99/2 132/99/2 135/99/2
f 136/99/2 137/99/2 138/99/2
f 138/99/2 137/99/2 139/99/2
f 143/92/3 141/92/3 140/92/3
f 144/92/3 141/92/3 143/92/3
f 147/92/3 143/92/3 142/92/3
f 147/92/3 145/92/3 144/92/3
f 147/92/3 144/92/3 143/92/3
f 148/92/3 147/92/3 146/92/3
f 149/92/3 145/92/3 147/92/3
f 149/92/3 147/92/3 148/92/3
f 150/92/3 145/92/3 149/92/3
f 151/92/3 145/92/3 150/92/3
f 152/92/3 150/92/3 149/92/3
f 153/92/3 150/92/3 152/92/3
f 157/98/3 155/98/3 154/98/3
f 158/98/3 155/98/3 157/98/3
f 161/98/3 157/98/3 156/98/3
f 162/98/3 157/98/3 161/98/3
f 163/92/3 159/92/3 158/92/3
f 164/92/3 159/92/3 163/92/3
f 167/98/3 161/98/3 160/98/3
f 168/98/3 161/98/3 167/98/3
f 169/98/3 167/98/3 166/98/3
f 170/98/3 167/98/3 169/98/3
f 173/98/3 165/98/3 164/98/3
f 174/98/3 165/98/3 173/98/3
f 175/98/3 171/98/3 170/98/3
f 176/98/3 171/98/3 175/98/3
f 177/98/3 173/98/3 172/98/3
f 178/98/3 173/98/3 177/98/3
f 179/98/3 177/98/3 176/98/3
f 180/98/3 177/98/3 179/98/3
f 184/99/3 182/99/3 181/99/3
f 185/99/3 182/99/3 184/99/3
f 189/99/3 184/99/3 183/99/3
f 190/99/3 184/99/3 189/99/3
f 191/99/3 184/99/3 190/99/3
f 192/99/3 187/99/3 186/99/3
f 193/99/3 187/99/3 192/99/3
f 195/99/3 189/99/3 188/99/3
f 195/99/3 190/99/3 189/99/3
f 196/99/3 190/99/3 195/99/3
f 197/99/3 194/99/3 193/99/3
f 198/99/3 194/99/3 197/99/3
f 200/99/3 195/99/3 188/99/3
f 201/99/3 195/99/3 200/99/3
f 204/99/3 200/99/3 199/99/3
f 205/99/3 200/99/3 204/99/3
f 207/99/3 203/99/3 202/99/3
f 208/99/3 203/99/3 207/99/3
f 211/99/3 206/99/3 205/99/3
f 212/99/3 206/99/3 211/99/3
f 215/99/3 210/99/3 209/99/3
f 216/99/3 210/99/3 215/99/3
f 217/99/3 213/99/3 212/99/3
f 218/99/3 213/99/3 217/99/3
f 219/99/3 215/99/3 214/99/3
f 220/99/3 215/99/3 219/99/3
f 221/99/3 219/99/3 218/99/3
f 222/99/3 219/99/3 221/99/3
f 223/99/4 224/99/4 226/99/4
f 226/99/4 224/99/4 227/99/4
f 225/99/4 226/99/4 230/99/4
f 230/99/4 226/99/4 231/99/4
f 227/99/4 228/99/4 232/99/4
f 232/99/4 228/99/4 233/99/4
f 229/99/4 230/99/4 236/99/4
f 236/99/4 230/99/4 237/99/4
f 233/99/4 234/99/4 238/99/4
f 238/99/4 234/99/4 239/99/4
f 235/99/4 236/99/4 241/99/4
f 241/99/4 236/99/4 242/99/4
f 239/99/4 240/99/4 245/99/4
f 245/99/4 240/99/4 246/99/4
f 242/99/4 243/99/4 247/99/4
f 247/99/4 243/99/4 248/99/4
f 244/99/4 245/99/4 251/99/4
f 251/99/4 245/99/4 252/99/4
f 248/99/4 249/99/4 253/99/4
f 253/99/4 249/99/4 254/99/4
f 250/99/4 251/99/4 255/99/4
f 255/99/4 251/99/4 256/99/4
f 254/99/4 255/99/4 257/99/4
f 257/99/4 255/99/4 258/99/4
f 259/99/4 260/99/4 262/99/4
f 262/99/4 260/99/4 263/99/4
f 261/99/4 262/99/4 266/99/4
f 263/99/4 264/99/4 266/99/4
f 262/99/4 263/99/4 266/99/4
f 266/99/4 264/99/4 267/99/4
f 265/99/4 266/99/4 269/99/4
f 267/99/4 268/99/4 269/99/4
f 266/99/4 267/99/4 269/99/4
f 269/99/4 268/99/4 270/99/4
f 270/99/4 268/99/4 271/99/4
f 271/99/4 268/99/4 272/99/4
f 270/99/4 271/99/4 273/99/4
f 273/99/4 271/99/4 274/99/4
f 274/99/4 271/99/4 275/99/4
f 275/99/4 271/99/4 276/99/4
f 274/99/4 275/99/4 277/99/4
f 277/99/4 275/99/4 278/99/4
f 281/99/5 280/99/5 279/99/5
f 282/99/5 280/99/5 281/99/5
f 286/98/5 284/98/5 283/98/5
f 287/98/5 284/98/5 286/98/5
f 289/99/5 286/99/5 285/99/5
f 290/99/5 286/99/5 289/99/5
f 291/99/5 288/99/5 287/99/5
f 292/99/5 288/99/5 291/99/5
f 293/99/5 291/99/5 290/99/5
f 294/99/5 291/99/5 293/99/5
f 298/92/5 296/92/5 295/92/5
f 299/92/5 296/92/5 298/92/5
f 303/98/5 298/98/5 297/98/5
f 304/98/5 298/98/5 303/98/5
f 305/98/5 300/98/5 299/98/5
f 306/98/5 300/98/5 305/98/5
f 308/99/5 302/99/5 301/99/5
f 309/99/5 302/99/5 308/99/5
f 312/99/5 307/99/5 306/99/5
f 313/99/5 307/99/5 312/99/5
f 314/99/5 310/99/5 309/99/5
f 315/99/5 310/99/5 314/99/5
f 316/99/5 312/99/5 311/99/5
f 317/99/5 312/99/5 316/99/5
f 323/92/5 319/92/5 318/92/5
f 324/92/5 319/92/5 323/92/5
f 325/92/5 321/92/5 320/92/5
f 326/92/5 321/92/5 325/92/5
f 328/98/5 323/98/5 322/98/5
f 329/98/5 323/98/5 328/98/5
f 330/98/5 327/98/5 326/98/5
f 331/98/5 327/98/5 330/98/5
f 334/99/5 332/99/5 331/99/5
f 335/99/5 332/99/5 334/99/5
f 336/99/5 334/99/5 333/99/5
f 337/99/5 334/99/5 336/99/5
f 341/92/5 339/92/5 338/92/5
f 342/92/5 339/92/5 341/92/5
f 344/98/5 341/98/5 340/98/5
f 345/98/5 341/98/5 344/98/5
f 346/99/5 344/99/5 343/99/5
f 347/99/5 344/99/5 346/99/5
f 349/99/5 348/99/5 347/99/5
f 350/99/5 348/99/5 349/99/5
f 351/99/6 352/99/6 353/99/6
f 353/99/6 352/99/6 354/99/6
f 354/99/6 355/99/6 356/99/6
f 356/99/6 355/99/6 357/99/6
f 358/92/6 359/92/6 363/92/6
f 363/92/6 359/92/6 364/92/6
f 360/92/6 361/92/6 365/92/6
f 365/92/6 361/92/6 366/92/6
f 362/98/6 363/98/6 368/98/6
f 368/98/6 363/98/6 369/98/6
f 366/98/6 367/98/6 370/98/6
f 370/98/6 367/98/6 371/98/6
f 371/99/6 372/99/6 374/99/6
f 374/99/6 372/99/6 375/99/6
f 373/99/6 374/99/6 376/99/6
f 376/99/6 374/99/6 377/99/6
f 378/92/6 379/92/6 381/92/6
f 381/92/6 379/92/6 382/92/6
f 380/92/6 381/92/6 385/92/6
f 385/92/6 381/92/6 386/92/6
f 382/98/6 383/98/6 387/98/6
f 387/98/6 383/98/6 388/98/6
f 384/99/6 385/99/6 390/99/6
f 390/99/6 385/99/6 391/99/6
f 388/99/6 389/99/6 394/99/6
f 394/99/6 389/99/6 395/99/6
f 391/99/6 392/99/6 396/99/6
f 396/99/6 392/99/6 397/99/6
f 393/99/6 394/99/6 398/99/6
f 398/99/6 394/99/6 399/99/6
f 400/98/6 401/98/6 403/98/6
f 403/98/6 401/98/6 404/98/6
f 404/98/6 401/98/6 405/98/6
f 405/98/6 401/98/6 406/98/6
f 402/99/6 403/99/6 408/99/6
f 403/99/6 404/99/6 408/99/6
f 408/99/6 404/99/6 409/99/6
f 406/99/6 407/99/6 410/99/6
f 405/99/6 406/99/6 410/99/6
f 410/99/6 407/99/6 411/99/6
f 409/99/6 410/99/6 412/99/6
f 412/99/6 410/99/6 413/99/6
f 414/99/6 415/99/6 416/99/6
f 416/99/6 415/99/6 417/99/6
